<?xml version="1.0" encoding="utf-8"?>
<svg viewBox="585.4448 84.1017 555.0912 511.5766" xmlns="http://www.w3.org/2000/svg">
  <g transform="matrix(1.2821910381317139, 0, 0, 1.2821910381317139, 585.4447719074005, 84.1096737997184)" style="">
    <path class="st0" d="M348.55,362.43c-17.37,0-33.45,1.25-46.63,3.36c-13.17-2.11-29.25-3.36-46.63-3.36&#10;&#9;&#9;c-13.89,0-26.96,0.79-38.37,2.19c-13.04-2.04-28.85-3.24-45.91-3.24c-17.65,0-33.97,1.29-47.26,3.46&#10;&#9;&#9;c-12.45-1.77-27.18-2.8-42.98-2.8C36.17,362.03,0,370.21,0,380.31c0,10.09,36.17,18.28,80.78,18.28c17.65,0,33.97-1.29,47.26-3.46&#10;&#9;&#9;c12.45,1.77,27.18,2.8,42.98,2.8c13.89,0,26.96-0.79,38.37-2.19c13.04,2.04,28.85,3.24,45.91,3.24c17.37,0,33.45-1.25,46.63-3.36&#10;&#9;&#9;c13.17,2.11,29.25,3.36,46.63,3.36c44.62,0,80.78-8.18,80.78-18.28C429.33,370.61,393.17,362.43,348.55,362.43z" style="fill: rgb(158, 204, 219); opacity: 0.2;"/>
    <g>
      <path class="st1" d="M113.8,112.04c0,0,22.09,32.89,26.73,39.29l-5.65,8.49c0,0-16.74-20.18-32.06-43.96L113.8,112.04z" style="fill: rgb(211, 148, 132);"/>
      <g>
        <path class="st2" d="M174.67,85.99l8.16-2.18l24.75,51.37l19.88-19.13c4.8-9.21,6.9-21.39,8.58-19.36&#10;&#9;&#9;&#9;&#9;c0.14,2.18,0.58,3.85-0.53,6.37c2.22-5.03,12.72-18.5,11.97-15.18c-0.05,3.12-2.33,5.32-3.74,8.36c1.53-2.63,6.38-7.95,7.25-7.03&#10;&#9;&#9;&#9;&#9;c-0.59,2.82-3.38,7.18-5.13,8.97c2.16-1.91,7.11-7.89,7.93-6.64c-1.11,2.52-3.33,5.44-4.96,7.65c1.75-1.8,4.38-4.83,6.76-5.91&#10;&#9;&#9;&#9;&#9;c-2.29,6.39-15.51,20.24-18.19,21.89c-1.19,0.73-2.22,1.55-3.15,2.42c-0.03,0.05-20.96,30.86-26.92,33.6&#10;&#9;&#9;&#9;&#9;c-5.97,2.75-21.63-31.18-21.63-31.18l-13.67-19.03L174.67,85.99z" style="fill: rgb(183, 135, 92);"/>
        <g>
          <path class="st3" d="M165.33,370.17c0,0,29.88,7.27,36,3.68c0,0,1.12-1.43-1.04-2.39c-0.13-0.06-0.28-0.12-0.45-0.17&#10;&#9;&#9;&#9;&#9;&#9;c-1.62-0.56-4.24-1.76-7.12-3.17c-5.23-2.57-11.26-5.84-13.54-7.27c-0.24-0.15-0.44-0.28-0.6-0.39&#10;&#9;&#9;&#9;&#9;&#9;c-5.11-3.58,7.33-148.56,7.33-148.56l-19.26-3.32c0,0-0.49,78.25-2.02,86.94c-1.47,8.32,0.19,48.96,0.63,65.88&#10;&#9;&#9;&#9;&#9;&#9;c0.02,0.76,0.04,1.48,0.05,2.14v1.7v2.97V370.17z M181.44,372.09c1.21,0.26,2.39,0.47,3.59,0.64&#10;&#9;&#9;&#9;&#9;&#9;C183.83,372.56,182.65,372.36,181.44,372.09z M185.35,372.78c1.21,0.16,2.44,0.28,3.68,0.33&#10;&#9;&#9;&#9;&#9;&#9;C187.79,373.06,186.57,372.95,185.35,372.78z" style="fill: rgb(91, 78, 72);"/>
          <path class="st3" d="M134.03,298.83c-1.47,8.32,0.18,48.95,0.63,65.87c0.02,0.76,0.03,1.48,0.05,2.13v1.71v2.96v1.99&#10;&#9;&#9;&#9;&#9;&#9;c0,0,29.87,7.27,36,3.67c0,0,1.13-1.43-1.04-2.39c-0.13-0.06-0.28-0.11-0.45-0.17c-1.62-0.56-4.24-1.75-7.12-3.17&#10;&#9;&#9;&#9;&#9;&#9;c-5.22-2.57-11.25-5.84-13.53-7.26c-0.24-0.15-0.45-0.29-0.6-0.39c-5.11-3.58,8.55-148.82,8.55-148.82l-23.09-3.07l0.59,26.08&#10;&#9;&#9;&#9;&#9;&#9;C134.03,237.98,135.56,290.14,134.03,298.83z M150.82,375.42c1.19,0.26,2.35,0.47,3.52,0.63&#10;&#9;&#9;&#9;&#9;&#9;C153.17,375.88,152,375.68,150.82,375.42z M154.76,376.11c1.19,0.16,2.38,0.27,3.61,0.33&#10;&#9;&#9;&#9;&#9;&#9;C157.15,376.39,155.95,376.27,154.76,376.11z" style="fill: rgb(91, 78, 72);"/>
        </g>
        <g>
          <path class="st4" d="M130.08,188.46c0,0,1.56,79.53,1.56,95.63c0,0-0.33,76.56,0.44,79.12c0,0,12.21,3.08,18.6-0.48&#10;&#9;&#9;&#9;&#9;&#9;c0,0-0.37-33.38-0.37-44.63c0-11.25,8.13-99.98,8.13-99.98l5.62-2.3l-1.29,143.18c0,0,13.32,5.08,18.32-0.1&#10;&#9;&#9;&#9;&#9;&#9;c0,0,2.08-48.98,2.4-57.16c0.32-8.19,5.83-106.38,3.53-113.28H130.08z" style="fill: rgb(155, 188, 196);"/>
        </g>
        <g>
          <path class="st5" d="M156.53,219.14c0,0,1.1-0.17,2.65-0.65c1.55-0.47,3.55-1.23,5.5-2.13c1.94-0.91,3.81-1.96,5.17-2.85&#10;&#9;&#9;&#9;&#9;&#9;c1.36-0.88,2.19-1.61,2.19-1.61s-1.09,0.17-2.64,0.65c-1.56,0.46-3.56,1.23-5.5,2.13c-1.94,0.91-3.81,1.96-5.17,2.85&#10;&#9;&#9;&#9;&#9;&#9;C157.37,218.41,156.53,219.14,156.53,219.14z" style="fill: rgb(116, 167, 175);"/>
        </g>
        <g>
          <path class="st5" d="M162.06,191.78c0,0-0.01,0.36-0.09,0.96c-0.07,0.61-0.18,1.47-0.29,2.51c-0.23,2.07-0.45,4.85-0.54,7.63&#10;&#9;&#9;&#9;&#9;&#9;c-0.08,2.78-0.02,5.56,0.15,7.66c0.16,2.09,0.44,3.51,0.51,3.48c-0.07,0.01,0.27-1.38,0.55-3.45c0.3-2.08,0.54-4.85,0.63-7.64&#10;&#9;&#9;&#9;&#9;&#9;c0.08-2.79-0.02-5.58-0.25-7.68c-0.11-1.05-0.26-1.92-0.4-2.53C162.2,192.11,162.06,191.78,162.06,191.78z" style="fill: rgb(116, 167, 175);"/>
        </g>
        <g>
          <path class="st5" d="M165.9,194.08c0,0-0.3,1-0.5,2.49c-0.22,1.49-0.38,3.45-0.54,5.38c-0.15,1.93-0.34,3.82-0.66,5.2&#10;&#9;&#9;&#9;&#9;&#9;c-0.11,0.33-0.16,0.67-0.26,0.93c-0.11,0.26-0.18,0.53-0.28,0.71c-0.2,0.4-0.31,0.62-0.31,0.62s0.22-0.13,0.6-0.39&#10;&#9;&#9;&#9;&#9;&#9;c0.36-0.29,0.83-0.78,1.24-1.47c0.39-0.69,0.77-1.55,1.01-2.49c0.28-0.94,0.4-1.96,0.51-2.97c0.15-2.03,0-4.05-0.25-5.54&#10;&#9;&#9;&#9;&#9;&#9;C166.22,195.07,165.9,194.08,165.9,194.08z" style="fill: rgb(116, 167, 175);"/>
        </g>
        <g>
          <g>
            <path d="M133.82,41.01c-2.88,1.03-5.14-3.09-2.26-4.53l0,0c-2.47-0.82-3.29-4.73-1.03-6.17c-2.68-1.44-2.26-4.94-0.21-6.59&#10;&#9;&#9;&#9;&#9;&#9;&#9;c-1.85-1.65-2.47-5.14,0.21-5.76c-1.65-2.06-0.62-5.56,2.26-5.56c0.21-2.47,0.82-7.82,4.73-4.94&#10;&#9;&#9;&#9;&#9;&#9;&#9;c-1.23-3.09,4.53-6.17,6.59-3.91c0.82-2.26,5.97-4.94,7-1.65c1.03-2.47,5.35-2.68,6.17,0.2c1.85-1.44,6.17-2.88,6.79,0.82&#10;&#9;&#9;&#9;&#9;&#9;&#9;c2.06-2.26,5.97-0.41,5.56,2.47c2.47-1.03,8.03,0.82,4.73,3.91c2.67,0,4.12,3.5,2.47,5.35c2.26,0.82,3.7,4.53,1.03,5.97&#10;&#9;&#9;&#9;&#9;&#9;&#9;c2.06,0.82,1.85,3.91,0.21,5.14c2.88,0.21,0.82,4.12-0.62,5.15c4.12,4.32-7,6.17-8.64,7c-2.26,1.03-2.88,3.71-4.12,6.17&#10;&#9;&#9;&#9;&#9;&#9;&#9;c-1.65,2.68-4.94,4.94-5.97,8.03c-0.21,0-19.96-2.91-20.17-2.91L133.82,41.01z"/>
          </g>
          <path class="st2" d="M177.3,34.02c0-4.77-0.1-7.43,0-10.24c0.08-2.42-0.55-5.65-3.01-7.01c-1.85-1.02-3.89-0.24-5.73,0.28&#10;&#9;&#9;&#9;&#9;&#9;c-7.03,2-14.99,2.48-21.96,0c-1.95-0.69-5.63-2.99-6.92-0.57c-1.22,2.26-0.43,5.14-0.26,7.57c0.28,4.18,0.84,15.5,0.94,16.96&#10;&#9;&#9;&#9;&#9;&#9;c0.06,0.94-0.46,4.56-1.98,2.81c-0.55-0.64-0.42-1.6-0.89-2.3c0,0-7.66-3.28-7.29,5.55c0.3,7.19,9.78,6.87,9.78,6.87&#10;&#9;&#9;&#9;&#9;&#9;s0.07,4.94,11.87,11.4c0,0,0.39,8.41-1.23,10.05c0,0,4.93,8.9,10.93,5.42l3.24-4.73c0,0-1.7,0.16-1.7-1.47&#10;&#9;&#9;&#9;&#9;&#9;c0-1.63,0.23-7.96,0.23-7.96s13.13-0.5,13.98-9.94C178.16,47.28,177.3,34.02,177.3,34.02z" style="fill: rgb(183, 135, 92);"/>
          <g>
            <path class="st2" d="M163.12,38.35c0,3,2,5.19,3.2,7.79c0.8,2.2,0.8,2.8-1.6,3.39c-1.2,0.4-3.79,0.6-4.79-0.4" style="fill: rgb(183, 135, 92);"/>
            <path class="st6" d="M163.12,38.35c0.1,0.71,0.27,1.39,0.54,2.03c0.26,0.64,0.59,1.25,0.94,1.85c0.71,1.2,1.53,2.37,2.16,3.7&#10;&#9;&#9;&#9;&#9;&#9;&#9;l0.01,0.01l0.01,0.02c0.14,0.37,0.28,0.75,0.38,1.17c0.09,0.41,0.21,0.89,0.01,1.46c-0.24,0.59-0.76,0.83-1.14,0.99&#10;&#9;&#9;&#9;&#9;&#9;&#9;c-0.41,0.16-0.81,0.26-1.21,0.34l0.03-0.01c-0.88,0.23-1.74,0.27-2.6,0.2c-0.43-0.04-0.86-0.14-1.26-0.28&#10;&#9;&#9;&#9;&#9;&#9;&#9;c-0.4-0.14-0.8-0.37-1.06-0.7c0.34,0.25,0.74,0.36,1.13,0.42c0.4,0.06,0.8,0.06,1.2,0.04c0.8-0.05,1.61-0.19,2.32-0.45l-0.01,0&#10;&#9;&#9;&#9;&#9;&#9;&#9;l0.04-0.01c0.37-0.11,0.73-0.22,1.05-0.37c0.32-0.15,0.55-0.34,0.6-0.51c0.07-0.18,0.03-0.52-0.07-0.86&#10;&#9;&#9;&#9;&#9;&#9;&#9;c-0.1-0.35-0.23-0.71-0.35-1.08l0.02,0.04c-0.56-1.25-1.32-2.45-1.92-3.77C163.33,41.27,162.93,39.78,163.12,38.35z" style="fill: rgb(142, 83, 70);"/>
          </g>
          <g>
            <g>
              <path d="M145.67,27.6c1.06-3.38,4.79-5.27,8.18-4.21L145.67,27.6z"/>
            </g>
          </g>
          <g>
            <g>
              <path d="M168.44,24.02c2.55-0.8,5.46,0.47,6.25,3.47L168.44,24.02z"/>
            </g>
          </g>
          <g>
            <g>
              <path class="st6" d="M154.82,53.59c0.61,0.5,1.23,0.94,1.92,1.28c0.34,0.19,0.67,0.33,1.02,0.49c0.35,0.15,0.7,0.27,1.06,0.4&#10;&#9;&#9;&#9;&#9;&#9;&#9;&#9;l-0.03-0.01l0.67,0.2c0.22,0.06,0.39,0.1,0.62,0.15c0.46,0.1,0.85,0.15,1.32,0.2l-0.04,0c0.44,0.02,0.87,0.05,1.27,0.03&#10;&#9;&#9;&#9;&#9;&#9;&#9;&#9;c0.47-0.02,0.79-0.06,1.24-0.15c0.39-0.08,0.8-0.22,1.18-0.37c0.38-0.16,0.75-0.35,1.07-0.6l0.04-0.03l-0.02,0.02&#10;&#9;&#9;&#9;&#9;&#9;&#9;&#9;c0.24-0.16,0.47-0.37,0.69-0.6l0.02-0.02l-0.01,0.01c0.32-0.28,0.53-0.7,0.78-1.09c-0.1,0.45-0.21,0.91-0.5,1.33l0.01-0.02&#10;&#9;&#9;&#9;&#9;&#9;&#9;&#9;c-0.16,0.31-0.36,0.6-0.63,0.85l0.02-0.02c-0.32,0.36-0.72,0.65-1.13,0.88c-0.42,0.24-0.84,0.42-1.31,0.55&#10;&#9;&#9;&#9;&#9;&#9;&#9;&#9;c-0.41,0.13-0.97,0.24-1.38,0.25c-0.48,0.04-0.95,0.03-1.39,0l-0.02,0l-0.02,0c-0.44-0.06-0.96-0.14-1.39-0.25&#10;&#9;&#9;&#9;&#9;&#9;&#9;&#9;c-0.22-0.05-0.49-0.13-0.71-0.21l-0.64-0.24l-0.05-0.02l0.02,0.01c-0.37-0.16-0.73-0.34-1.07-0.54c-0.34-0.19-0.7-0.43-1-0.68&#10;&#9;&#9;&#9;&#9;&#9;&#9;&#9;C155.79,54.85,155.24,54.25,154.82,53.59z" style="fill: rgb(142, 83, 70);"/>
            </g>
          </g>
          <g>
            <path d="M167.5,39.86c0,1.09,0.69,1.98,1.53,1.98c0.84,0,1.52-0.89,1.52-1.98c0-1.09-0.68-1.98-1.52-1.98&#10;&#9;&#9;&#9;&#9;&#9;&#9;C168.19,37.88,167.5,38.77,167.5,39.86z"/>
          </g>
          <g>
            <path d="M149.59,39.86c0,1.09,0.68,1.98,1.53,1.98c0.84,0,1.52-0.89,1.52-1.98c0-1.09-0.68-1.98-1.52-1.98&#10;&#9;&#9;&#9;&#9;&#9;&#9;C150.28,37.88,149.59,38.77,149.59,39.86z"/>
          </g>
        </g>
        <path class="st7" d="M130.09,185.17v5.28c0,0,36.2,5.33,57.3-0.66l0.18-6.51C187.57,183.28,167.01,189.26,130.09,185.17z" style="fill: rgb(71, 48, 26);"/>
        <path class="st8" d="M140.56,193.78c-0.07-0.33,0-10.5,0-10.5l2.42,1.81v9.54L140.56,193.78z" style="fill: rgb(188, 176, 167);"/>
        <path class="st9" d="M199.35,111.76c-4.77-9.48-8.61-13.81-13.56-23.18c-1.43-2.71-2.68-5.23-5.39-6.86&#10;&#9;&#9;&#9;&#9;c-2.59-1.55-6.14-3.45-9.26-3.3c-0.5-0.22-1-0.45-1.47-0.72c-12.15,8.73-16.42-2.24-22.84-1.69C146.01,76,147,75.84,146.01,76&#10;&#9;&#9;&#9;&#9;c-5.42,0.93-11.22,4.1-13.77,5.78c-3.69,1.82-5.36,3.51-5.36,3.51l-0.51,4.75c0,0,0.4,5.75,0.88,13.44&#10;&#9;&#9;&#9;&#9;c0.13,13.64,0.25,32.78,0.02,38.43c-0.1,2.34,0.5,6.19,1.37,10.68c-0.19,13.43-0.26,39.17-0.26,39.18&#10;&#9;&#9;&#9;&#9;c0.16,2.23,51.62,6.13,60.71-2.82c1.08-1.06-0.06-10.08-0.15-11.6c-0.37-6.46-0.73-12.91-1.1-19.36&#10;&#9;&#9;&#9;&#9;c-0.66-11.77-1.33-23.53-1.99-35.3c-0.03-0.63-0.07-1.27-0.11-1.91l-0.03-0.78c0.08,1.61,0.46-1.83,0.31-0.45&#10;&#9;&#9;&#9;&#9;c-0.03,0.26,2.25-0.36,3.53-0.89C189.55,118.66,195.75,116.88,199.35,111.76z" style="fill: rgb(76, 72, 68);"/>
        <g>
          <g>
            <path class="st2" d="M138.32,87.76c-3.62,11.95-7.5,40.96-8.23,51.46c-0.36,6.16,4.92,38.99,9.89,56.72l0,0&#10;&#9;&#9;&#9;&#9;&#9;&#9;c0,3.2-0.95,5.12-6.55,5.12c-4.63-7.6-17.95-57.32-15.71-64.27c0.75-2.32,3.15-26.31,6.78-38.62&#10;&#9;&#9;&#9;&#9;&#9;&#9;c1.81-6.52,3.62-14.35,11.59-14.35L138.32,87.76z" style="fill: rgb(183, 135, 92);"/>
          </g>
          <path class="st10" d="M125.1,87.73c1.73-3.08,4.02-6.06,7.85-6.75c11.29-2.03,6.88,24.9,3.78,30.79c0,0-8.67,4.2-17.75-6.15l0,0&#10;&#9;&#9;&#9;&#9;&#9;C121.13,100.31,122.08,93.11,125.1,87.73z" style="fill: rgb(102, 98, 95);"/>
        </g>
        <g>
          <polygon class="st10" points="159,80.79 149.92,72.46 142.71,76.02 151.55,87.15 &#9;&#9;&#9;&#9;" style="fill: rgb(102, 98, 95);"/>
        </g>
        <g>
          <defs>
            <polygon id="SVGID_1_" points="159,80.79 149.92,72.46 142.71,76.02 151.55,87.15 &#9;&#9;&#9;&#9;&#9;"/>
          </defs>
          <clipPath id="SVGID_2_">
            <polygon points="159,80.79 149.92,72.46 142.71,76.02 151.55,87.15 &#9;&#9;&#9;&#9;&#9;" style="overflow: visible;"/>
          </clipPath>
          <g class="st11" style="clip-path: url('#SVGID_2_');">
            <g>
              <g>
                <path class="st12" d="M144.14,73.81c3.33,4.98,7.35,9.43,11.26,13.95c0.1,0.11,0.56,0.07,0.48-0.01&#10;&#9;&#9;&#9;&#9;&#9;&#9;&#9;&#9;c-3.91-4.52-7.93-8.97-11.26-13.95C144.55,73.67,144.07,73.7,144.14,73.81L144.14,73.81z" style="fill: rgb(245, 245, 245);"/>
              </g>
            </g>
            <g>
              <g>
                <path class="st12" d="M142.48,74.58c1.56,1.48,2.85,3.31,4.18,4.99c1.86,2.36,3.7,4.73,5.59,7.07&#10;&#9;&#9;&#9;&#9;&#9;&#9;&#9;&#9;c0.76,0.95,1.52,1.9,2.34,2.79c0.09,0.1,0.56,0.14,0.44,0.01c-1.67-1.83-3.16-3.81-4.69-5.75c-1.81-2.29-3.59-4.61-5.45-6.86&#10;&#9;&#9;&#9;&#9;&#9;&#9;&#9;&#9;c-0.63-0.77-1.25-1.56-1.98-2.24C142.83,74.5,142.36,74.46,142.48,74.58L142.48,74.58z" style="fill: rgb(245, 245, 245);"/>
              </g>
            </g>
          </g>
        </g>
        <g>
          <polygon class="st10" points="174.67,78.45 166.31,73.38 159,80.79 166.84,87.76 &#9;&#9;&#9;&#9;" style="fill: rgb(102, 98, 95);"/>
        </g>
        <g>
          <defs>
            <polygon id="SVGID_3_" points="174.67,78.45 166.31,73.38 159,80.79 166.84,87.76 &#9;&#9;&#9;&#9;&#9;"/>
          </defs>
          <clipPath id="SVGID_4_">
            <polygon points="174.67,78.45 166.31,73.38 159,80.79 166.84,87.76 &#9;&#9;&#9;&#9;&#9;" style="overflow: visible;"/>
          </clipPath>
          <g class="st13" style="clip-path: url('#SVGID_4_');">
            <g>
              <g>
                <path class="st12" d="M174.4,73.76c-3.33,4.98-7.35,9.43-11.26,13.95c-0.08,0.1,0.38,0.21,0.48,0.09&#10;&#9;&#9;&#9;&#9;&#9;&#9;&#9;&#9;c3.91-4.52,7.93-8.97,11.26-13.95C174.96,73.73,174.48,73.64,174.4,73.76L174.4,73.76z" style="fill: rgb(245, 245, 245);"/>
              </g>
            </g>
            <g>
              <g>
                <path class="st12" d="M176.09,74.5c-1.56,1.48-2.85,3.31-4.18,4.99c-1.86,2.36-3.7,4.73-5.59,7.07&#10;&#9;&#9;&#9;&#9;&#9;&#9;&#9;&#9;c-0.76,0.95-1.52,1.9-2.34,2.79c-0.1,0.11,0.36,0.28,0.45,0.17c1.67-1.83,3.16-3.81,4.69-5.75c1.81-2.29,3.59-4.61,5.45-6.86&#10;&#9;&#9;&#9;&#9;&#9;&#9;&#9;&#9;c0.63-0.77,1.25-1.56,1.98-2.24C176.65,74.58,176.2,74.4,176.09,74.5L176.09,74.5z" style="fill: rgb(245, 245, 245);"/>
              </g>
            </g>
          </g>
        </g>
        <path class="st14" d="M188.88,109.02c0,0-0.47,0.08-0.96,0.33c-0.42,0.21-0.88,0.55-1.27,0.96c-0.08-4-0.3-8-0.58-11&#10;&#9;&#9;&#9;&#9;c-0.13-1.51-0.31-2.77-0.41-3.65c-0.11-0.88-0.2-1.39-0.2-1.39s-0.07,0.5-0.15,1.39c-0.06,0.88-0.21,2.14-0.28,3.65&#10;&#9;&#9;&#9;&#9;c-0.18,3.02-0.26,7.05-0.2,11.08c0.08,4.02,0.29,8.05,0.58,11.07c0.12,1.51,0.31,2.77,0.4,3.65c0.11,0.89,0.2,1.39,0.2,1.39&#10;&#9;&#9;&#9;&#9;s0.07-0.5,0.15-1.39c0.06-0.88,0.21-2.14,0.29-3.65c0.14-2.44,0.22-5.54,0.22-8.77c0.42-0.26,0.85-0.62,1.21-1.05&#10;&#9;&#9;&#9;&#9;c0.42-0.52,0.73-1.13,0.87-1.66C188.91,109.46,188.88,109.02,188.88,109.02z" style="fill: rgb(48, 45, 43);"/>
      </g>
      <g>
        <path class="st12" d="M173.28,97.5c1.05-0.36,1.13,0.58,0.79,1.09c0.96-0.07,0.44,0.73,0.17,1.16c0.52,0.29,0.44,0.87,0,1.23&#10;&#9;&#9;&#9;&#9;c0.7-0.73,0.96,0.8,0.96,1.23c0.96,0.22,1.39-0.36,2.18-0.29c-0.44-0.36-0.17-0.87,0.43-0.94c-0.52-0.51-0.52-2.25,0-2.61&#10;&#9;&#9;&#9;&#9;c0.09,0.22,0.09,0.22,0.09,0.36c-0.44-0.44-0.52-1.6,0.35-1.16c1.13-0.65,0.52,1.23,0.35,1.6c0.52,0.15,0.61,0.65,0.52,1.09&#10;&#9;&#9;&#9;&#9;c-0.09,0.36-0.35,0.94-0.52,0.8c0.35,0.94-1.65,2.83-2.79,1.81c-1.66,1.74-2.87-1.67-2-1.89c-0.61,0.65-1.39-0.58-0.78-1.09&#10;&#9;&#9;&#9;&#9;c-0.44-0.22-0.52-0.87-0.09-1.09c-0.61-0.07-0.35-0.87,0.26-1.02L173.28,97.5z" style="fill: rgb(245, 245, 245);"/>
      </g>
      <g>
        <path class="st12" d="M176.06,100.4c-0.09,0-0.18-0.03-0.27-0.09c-0.74-0.48-0.46-2.7,0.71-2.34&#10;&#9;&#9;&#9;&#9;C177.43,98.25,176.87,100.42,176.06,100.4z" style="fill: rgb(245, 245, 245);"/>
      </g>
      <g>
        <g>
          <g>
            <g>
              <g>
                <g>
                  <g>
                    <path class="st15" d="M64.37,377.46c-4.7-3.4-14.74-7.76-15.43-10.93c-0.61-2.83,39.7-172.6,39.7-172.6l-25.46-9.11&#10;&#9;&#9;&#9;&#9;&#9;&#9;&#9;&#9;&#9;&#9;l-6.33,36.4c0,0-3.48,50.4-6.14,59.96c-2.66,9.56-12.11,70.14-13.4,87.35l-0.18,1.91&#10;&#9;&#9;&#9;&#9;&#9;&#9;&#9;&#9;&#9;&#9;C45.4,374.87,55.24,378.01,64.37,377.46z" style="fill: rgb(232, 187, 172);"/>
                  </g>
                  <g>
                    <path class="st16" d="M64.37,377.46c-9.13,0.55-18.97-2.59-27.24-7.03l-0.63,7.01c0,0,34.07,9.93,37.08,6.29&#10;&#9;&#9;&#9;&#9;&#9;&#9;&#9;&#9;&#9;&#9;C73.57,383.74,75,382.93,64.37,377.46z" style="fill: rgb(56, 14, 22);"/>
                  </g>
                </g>
                <g>
                  <g>
                    <path class="st15" d="M124.98,374.89c-5-2.91-11.95-6.65-14.62-8.52c-5.74-4.02,11.36-168.56,11.36-168.56l-25.98-3.45&#10;&#9;&#9;&#9;&#9;&#9;&#9;&#9;&#9;&#9;&#9;l0.67,29.33c0,0,1.73,58.66,0,68.44c-1.73,9.77,0.39,59.22,0.76,76.49v1.92C105.84,374.16,115.94,376.33,124.98,374.89z" style="fill: rgb(232, 187, 172);"/>
                  </g>
                  <g>
                    <path class="st16" d="M124.98,374.89c-9.03,1.44-19.13-0.73-27.8-4.35v5.56c0,0,30.82,8.53,37.71,4.5&#10;&#9;&#9;&#9;&#9;&#9;&#9;&#9;&#9;&#9;&#9;C134.89,380.59,136.42,379.09,124.98,374.89z" style="fill: rgb(56, 14, 22);"/>
                  </g>
                </g>
              </g>
              <path class="st17" d="M109.67,140.64l-0.4,17.7c0,0,1.24,11.02,3.84,18.77c2.59,7.74-15.03,16.03-17,16.04&#10;&#9;&#9;&#9;&#9;&#9;&#9;&#9;c-1.97,0.01-24.46-6.94-24.46-6.94l-8.63-13.17l2.26-8.64l-0.31-4.18c0,0-1.93-9.61-0.41-15.11&#10;&#9;&#9;&#9;&#9;&#9;&#9;&#9;C66.07,139.59,109.67,140.64,109.67,140.64z" style="fill: rgb(124, 74, 62);"/>
              <g>
                <path class="st18" d="M54.71,196.55c1.91-21.56,6.58-29.89,8.09-32.08c0.23-1.11,0.73-2.93,1.69-4.04&#10;&#9;&#9;&#9;&#9;&#9;&#9;&#9;&#9;c29.19,5.61,39.95,0.18,44.55-2.01c1.21,1.91,2.39,3.17,2.86,4.46c0,0,9.52,20.16,10.26,33.87&#10;&#9;&#9;&#9;&#9;&#9;&#9;&#9;&#9;c0.74,13.71-2.12,48.79-4.61,84.55l-5.8,79.28c0,0-7.7,1.92-15.73,0.24c-0.39-9.06-1.79-25.05-1.68-36.86&#10;&#9;&#9;&#9;&#9;&#9;&#9;&#9;&#9;c0.09-8.85,1.02-37.06,1.07-40.57c0.22-15.42-6.53-64.42-7.04-71.86c-0.07-1.02,1.55-1.32,2.36-2c0,0-6.84,5.69-6.84,5.69&#10;&#9;&#9;&#9;&#9;&#9;&#9;&#9;&#9;c-5.45,28.12-10.29,56.11-17.28,83.83c-4.57,18.11-9.14,36.23-13.71,54.34c-0.03,0.14-1.54,6.49-1.62,6.49&#10;&#9;&#9;&#9;&#9;&#9;&#9;&#9;&#9;c0,0-5.12,2.96-14.44-0.44c0,0,0.23-39.59,13.37-92.11C50.22,267.33,52.81,218.04,54.71,196.55z" style="fill: rgb(63, 67, 86);"/>
                <g>
                  <path class="st19" d="M110.37,161.79c-3.59,1.86-7.48,3.12-11.44,3.96c-3.97,0.84-8.02,1.21-12.07,1.35&#10;&#9;&#9;&#9;&#9;&#9;&#9;&#9;&#9;&#9;c-4.05,0.06-8.1-0.11-12.12-0.57c-2.01-0.24-4.01-0.52-6-0.85c-1.99-0.37-3.97-0.74-5.93-1.22c4,0.53,7.99,1.01,12,1.3&#10;&#9;&#9;&#9;&#9;&#9;&#9;&#9;&#9;&#9;c4,0.29,8.02,0.47,12.02,0.33c4.01-0.06,8-0.44,11.95-1.11c1.98-0.33,3.93-0.76,5.86-1.31&#10;&#9;&#9;&#9;&#9;&#9;&#9;&#9;&#9;&#9;C106.59,163.18,108.49,162.53,110.37,161.79z" style="fill: rgb(37, 40, 48);"/>
                </g>
                <g>
                  <path class="st19" d="M92.88,166.77l0.42,3.92l0.36,3.93c0.22,2.62,0.32,5.27,0.24,7.91c-0.11,2.64-0.38,5.31-1.15,7.88&#10;&#9;&#9;&#9;&#9;&#9;&#9;&#9;&#9;&#9;c-0.39,1.28-0.88,2.53-1.53,3.7c-0.68,1.15-1.49,2.23-2.51,3.08c1.71-2.01,2.71-4.46,3.3-6.97c0.57-2.52,0.81-5.12,0.9-7.72&#10;&#9;&#9;&#9;&#9;&#9;&#9;&#9;&#9;&#9;c0.1-2.6,0.03-5.22-0.01-7.84C92.84,172.03,92.74,169.4,92.88,166.77z" style="fill: rgb(37, 40, 48);"/>
                </g>
                <g>
                  <path class="st19" d="M90.29,167.48c-0.12,1.84-0.23,3.67-0.27,5.51c-0.07,1.84-0.1,3.67-0.11,5.51&#10;&#9;&#9;&#9;&#9;&#9;&#9;&#9;&#9;&#9;c-0.03,3.68-0.1,7.36-0.36,11.05c-0.14,1.84-0.33,3.69-0.59,5.51c-0.24,1.79-0.34,3.63-0.43,5.45&#10;&#9;&#9;&#9;&#9;&#9;&#9;&#9;&#9;&#9;c-0.14,3.66-0.02,7.34-0.14,11.03l-0.42-5.51c-0.11-1.84-0.19-3.68-0.21-5.53c-0.02-1.85,0.07-3.7,0.26-5.56&#10;&#9;&#9;&#9;&#9;&#9;&#9;&#9;&#9;&#9;c0.23-1.82,0.41-3.63,0.53-5.46c0.28-3.65,0.37-7.32,0.59-11C89.34,174.8,89.62,171.11,90.29,167.48z" style="fill: rgb(37, 40, 48);"/>
                </g>
                <g>
                  <path class="st19" d="M97.05,205.46c-1.15,0.76-2.27,1.53-3.36,2.33c-1.08,0.81-2.12,1.66-3.15,2.55&#10;&#9;&#9;&#9;&#9;&#9;&#9;&#9;&#9;&#9;c-1.04,0.88-2.07,1.78-3.17,2.61c-1.09,0.84-2.25,1.61-3.46,2.27c1.97-1.94,3.9-3.82,5.98-5.64&#10;&#9;&#9;&#9;&#9;&#9;&#9;&#9;&#9;&#9;c1.05-0.89,2.16-1.74,3.36-2.44C94.45,206.43,95.73,205.87,97.05,205.46z" style="fill: rgb(37, 40, 48);"/>
                </g>
                <g>
                  <path class="st19" d="M68.42,166.36c-0.25,3.23-1.47,6.38-3.3,9.09c-1.84,2.69-4.39,5.01-7.43,6.16&#10;&#9;&#9;&#9;&#9;&#9;&#9;&#9;&#9;&#9;c2.64-1.85,4.84-4.13,6.6-6.73C66.08,172.29,67.4,169.42,68.42,166.36z" style="fill: rgb(37, 40, 48);"/>
                </g>
                <g>
                  <path class="st19" d="M117.68,177.26c-0.79,0.28-1.66,0.11-2.46-0.11c-0.8-0.25-1.55-0.62-2.26-1.05&#10;&#9;&#9;&#9;&#9;&#9;&#9;&#9;&#9;&#9;c-1.42-0.86-2.67-1.99-3.75-3.24c-1.07-1.27-1.98-2.68-2.62-4.2c-0.66-1.52-1.04-3.16-1.06-4.79&#10;&#9;&#9;&#9;&#9;&#9;&#9;&#9;&#9;&#9;c0.84,3.14,2.4,5.94,4.45,8.34c1.02,1.2,2.16,2.3,3.42,3.25c0.63,0.46,1.3,0.9,2,1.24&#10;&#9;&#9;&#9;&#9;&#9;&#9;&#9;&#9;&#9;C116.1,177.05,116.87,177.3,117.68,177.26z" style="fill: rgb(37, 40, 48);"/>
                </g>
                <g>
                  <path class="st20" d="M111.7,358.01c-2.09,0.77-4.31,1.07-6.52,1.1c-2.21,0-4.45-0.29-6.52-1.12&#10;&#9;&#9;&#9;&#9;&#9;&#9;&#9;&#9;&#9;c2.22,0.05,4.36,0.15,6.52,0.12C107.34,358.12,109.48,358,111.7,358.01z" style="fill: rgb(36, 56, 66);"/>
                </g>
                <g>
                  <path class="st19" d="M66.9,284.06c-1.19,1.82-2.75,3.36-4.44,4.7c-1.71,1.32-3.56,2.48-5.61,3.22c1.65-1.42,3.34-2.68,5-4&#10;&#9;&#9;&#9;&#9;&#9;&#9;&#9;&#9;&#9;C63.52,286.68,65.14,285.34,66.9,284.06z" style="fill: rgb(37, 40, 48);"/>
                </g>
                <g>
                  <path class="st20" d="M50.7,357.85c-0.92,0.23-1.84,0.37-2.77,0.45c-0.93,0.09-1.88,0.09-2.83-0.01&#10;&#9;&#9;&#9;&#9;&#9;&#9;&#9;&#9;&#9;c-0.95-0.12-1.89-0.35-2.77-0.74c-0.88-0.39-1.68-0.92-2.35-1.58c0.89,0.31,1.75,0.62,2.61,0.85&#10;&#9;&#9;&#9;&#9;&#9;&#9;&#9;&#9;&#9;c0.87,0.22,1.73,0.39,2.62,0.48C46.99,357.52,48.84,357.49,50.7,357.85z" style="fill: rgb(36, 56, 66);"/>
                </g>
              </g>
            </g>
            <g>
              <g>
                <path class="st6" d="M100.43,65.38c0.01,0.03,0.01,0.07,0.01,0.11c0.01,0.05,0.03,0.1,0.03,0.16L100.43,65.38z" style="fill: rgb(142, 83, 70);"/>
              </g>
            </g>
            <g>
              <g>
                <path class="st21" d="M102.26,30.88c-0.23-0.1-2.15,0.07-2.37-0.03c-4.24-2.07-8.46-3.93-13.06-5.08&#10;&#9;&#9;&#9;&#9;&#9;&#9;&#9;&#9;c-4.98-1.24-10.7-1.74-15.18,0.25c-5.97,2.74-12.95,8.57-16.18,14.3c-5.23,9.21-5.19,19.49-5.19,29.95&#10;&#9;&#9;&#9;&#9;&#9;&#9;&#9;&#9;c0,11.2,2.95,23.96-4.52,32.92c-4.48,5.48-8.21,10.2-8.96,17.42c-0.75,6.72,1.25,13.69,5.48,19.17&#10;&#9;&#9;&#9;&#9;&#9;&#9;&#9;&#9;c8.71,11.2,25.64,18.17,39.83,14.94c11.95-2.49,21.41-13.94,23.65-25.89c1.99-10.21-1-20.41,1.49-30.62&#10;&#9;&#9;&#9;&#9;&#9;&#9;&#9;&#9;c2.49-10.7,5.23-21.16,5.72-32.36c0.29-6.63,1.75-15.75,0.78-22.36C112.54,35.38,109.38,34.1,102.26,30.88z" style="fill: rgb(191, 166, 64);"/>
              </g>
              <g>
                <g>
                  <path class="st22" d="M67.96,61.17c5.01-0.22,9.34-4.14,12.94-7.26c3.54-3.07,5.18-7.47,5.73-11.93&#10;&#9;&#9;&#9;&#9;&#9;&#9;&#9;&#9;&#9;c3.9,2.7,8.03,1.22,12.23,2.24c11.71,2.86,8.72,19.66,9.09,28c0.24,5.19-1.22,11.89-6.17,14.96&#10;&#9;&#9;&#9;&#9;&#9;&#9;&#9;&#9;&#9;c-2.6,1.65-8.12,3.02-8.94,3.44c-1.94,0.99-1.64,6.38-0.51,8.57c0.6,1.16,6.75,0.87,7.39,1.91&#10;&#9;&#9;&#9;&#9;&#9;&#9;&#9;&#9;&#9;c2.35,3.82-5.93,14.07-9.23,15.73c-8.26,4.25-18.72-5.91-18.95-15.35c4.49-1.18,9.01-0.93,10.43-5.65&#10;&#9;&#9;&#9;&#9;&#9;&#9;&#9;&#9;&#9;c0.48-1.89,1.54-5.92,0.21-7.28c-0.46-0.48-0.46-0.48-4.26-3.64c-4.57-3.81-7.21-8.74-7.21-8.74c-1.37,0-4.51,0.22-6.3-2.4&#10;&#9;&#9;&#9;&#9;&#9;&#9;&#9;&#9;&#9;c-3.29-4.81-2.02-7.57,4.13-7.33C68.43,66.43,68.01,61.68,67.96,61.17z" style="fill: rgb(255, 201, 187);"/>
                </g>
              </g>
              <g>
                <g>
                  <path class="st23" d="M97.61,65.7c0.01,1.25,0.71,2.29,1.55,2.32c0.85,0.02,1.53-0.98,1.52-2.25&#10;&#9;&#9;&#9;&#9;&#9;&#9;&#9;&#9;&#9;c-0.02-1.26-0.72-2.3-1.57-2.32C98.27,63.42,97.6,64.44,97.61,65.7z" style="fill: rgb(20, 18, 16);"/>
                </g>
              </g>
              <g>
                <g>
                  <path class="st23" d="M79.58,65.26c0.02,1.26,0.71,2.3,1.56,2.33c0.85,0.02,1.53-0.99,1.51-2.25&#10;&#9;&#9;&#9;&#9;&#9;&#9;&#9;&#9;&#9;c-0.02-1.26-0.71-2.3-1.56-2.33C80.24,63,79.56,64,79.58,65.26z" style="fill: rgb(20, 18, 16);"/>
                </g>
              </g>
              <g>
                <g>
                  <path class="st24" d="M94.7,66.9c0.24,0.89,0.43,1.8,0.85,2.39c0.22,0.28,0.42,0.44,0.79,0.57&#10;&#9;&#9;&#9;&#9;&#9;&#9;&#9;&#9;&#9;c0.09,0.03,0.19,0.08,0.31,0.13c0.07,0.03,0.11,0.05,0.21,0.11l0.15,0.08c0.21,0.13,0.46,0.3,0.65,0.49&#10;&#9;&#9;&#9;&#9;&#9;&#9;&#9;&#9;&#9;c0.38,0.39,0.77,0.99,0.67,1.72c-0.12,0.73-0.68,1.21-1.19,1.39c-1.04,0.38-2.04,0.15-2.86-0.27&#10;&#9;&#9;&#9;&#9;&#9;&#9;&#9;&#9;&#9;c0.92-0.09,1.81-0.24,2.41-0.63c0.29-0.21,0.44-0.44,0.42-0.62c0.01-0.18-0.11-0.43-0.36-0.66&#10;&#9;&#9;&#9;&#9;&#9;&#9;&#9;&#9;&#9;c-0.12-0.13-0.24-0.22-0.41-0.33l-0.14-0.09l-0.09-0.05l-0.3-0.15c-0.45-0.22-0.97-0.68-1.16-1.2&#10;&#9;&#9;&#9;&#9;&#9;&#9;&#9;&#9;&#9;C94.26,68.74,94.42,67.78,94.7,66.9z" style="fill: rgb(211, 155, 140);"/>
                </g>
                <g>
                  <path class="st25" d="M104.61,54.03c-0.37-0.3-0.73-0.41-1.11-0.55c-0.38-0.12-0.76-0.24-1.15-0.33&#10;&#9;&#9;&#9;&#9;&#9;&#9;&#9;&#9;&#9;c-0.39-0.11-0.78-0.2-1.18-0.3l-1.27-0.29c0.37-0.31,0.86-0.44,1.32-0.49c0.47-0.05,0.94,0,1.39,0.11&#10;&#9;&#9;&#9;&#9;&#9;&#9;&#9;&#9;&#9;c0.45,0.13,0.89,0.31,1.27,0.62C104.25,53.09,104.62,53.53,104.61,54.03z" style="fill: rgb(109, 100, 62);"/>
                </g>
                <g>
                  <path class="st25" d="M84.12,52.74c-0.53,0.11-0.98,0.26-1.45,0.4c-0.46,0.15-0.92,0.29-1.37,0.44&#10;&#9;&#9;&#9;&#9;&#9;&#9;&#9;&#9;&#9;c-0.92,0.3-1.8,0.57-2.8,0.94c0.22-0.5,0.63-0.89,1.07-1.2c0.44-0.31,0.92-0.53,1.42-0.7c0.51-0.15,1.03-0.26,1.56-0.26&#10;&#9;&#9;&#9;&#9;&#9;&#9;&#9;&#9;&#9;C83.09,52.37,83.66,52.44,84.12,52.74z" style="fill: rgb(109, 100, 62);"/>
                </g>
                <path class="st26" d="M97.08,77.54c0,0-0.36,0.28-0.89,0.66c0.19-0.12,0.36-0.23,0.48-0.34&#10;&#9;&#9;&#9;&#9;&#9;&#9;&#9;&#9;C96.93,77.66,97.08,77.54,97.08,77.54s-0.05,0.18-0.17,0.51c-0.05,0.16-0.14,0.36-0.28,0.55c-0.13,0.21-0.29,0.45-0.52,0.65&#10;&#9;&#9;&#9;&#9;&#9;&#9;&#9;&#9;c-0.41,0.47-1.07,0.84-1.81,1.08c-0.37,0.1-0.76,0.22-1.17,0.23c-0.41,0.05-0.81,0.01-1.22-0.01c-0.11,0-0.23-0.03-0.38-0.08&#10;&#9;&#9;&#9;&#9;&#9;&#9;&#9;&#9;c-0.27-0.05-0.54-0.08-0.8-0.16c-0.39-0.08-0.73-0.27-1.08-0.4c-0.67-0.32-1.25-0.69-1.68-1.1&#10;&#9;&#9;&#9;&#9;&#9;&#9;&#9;&#9;c-0.44-0.37-0.77-0.79-0.95-1.05c-0.17-0.29-0.27-0.46-0.27-0.46L97.08,77.54z" style="fill: rgb(255, 255, 255);"/>
              </g>
              <g>
                <g>
                  <path d="M104.59,31.94c-8.04,0-19.09,0.73-26.44,4.28C70.62,39.85,66,45.66,63.17,53.34c-1.13,3.07-2.67,7.54-3.38,12.57&#10;&#9;&#9;&#9;&#9;&#9;&#9;&#9;&#9;&#9;c-1.33-5.45-0.97-16.05,2.33-23.18c1.94-4.2,5.88-8.31,9.67-10.95c3.49-2.43,7.98-3.61,12.06-4.01&#10;&#9;&#9;&#9;&#9;&#9;&#9;&#9;&#9;&#9;c2.14-0.21,4.41-0.17,6.58-0.2C97.08,27.48,101.67,30.87,104.59,31.94z"/>
                </g>
              </g>
            </g>
            <g>
              <g>
                <g>
                  <path class="st27" d="M116.14,110.16c-1.58-2.86-3.79-6.55-6.29-7.73c-1.8-0.9-5.09-1.18-7.04-0.13l3.14,12.67&#10;&#9;&#9;&#9;&#9;&#9;&#9;&#9;&#9;&#9;c2.73-0.41,5.65-1.63,7.85-2.93C114.71,111.55,115.46,110.91,116.14,110.16z" style="fill: rgb(204, 102, 149);"/>
                </g>
                <path d="M116.14,110.16c-0.68,0.75-1.43,1.39-2.34,1.87c-2.19,1.3-5.11,2.52-7.85,2.93l0.91,3.65&#10;&#9;&#9;&#9;&#9;&#9;&#9;&#9;&#9;c4.64-1.35,8.13-2.1,10.38-6.45C116.92,111.6,116.55,110.91,116.14,110.16z"/>
              </g>
              <path class="st28" d="M111.13,151.6c-1.25-3.51-0.93-10.34-0.93-10.34c0.57-1.3,4.07-3.96,1.23-13.55&#10;&#9;&#9;&#9;&#9;&#9;&#9;&#9;c-0.47-1.58-0.87-3.33-1.23-5.16c-1.81-9.35-2.24-20.76-2.24-20.76l-3.51-0.49l-2.54-0.36l-2.8-0.4&#10;&#9;&#9;&#9;&#9;&#9;&#9;&#9;c0.04,10.07-6.41,12.44-14.39,10.71c-6.55-1.42-7.73-8.78-7.94-11.89l-2.34,0.22l-4.77,0.45c0.43,1.47,0.69,3.09,0.88,4.5&#10;&#9;&#9;&#9;&#9;&#9;&#9;&#9;c-0.19-1.41-0.45-3.03-0.88-4.5c-1.57,0.15-3.1,0.01-4.63,0.49c-0.34,0.11-4.14,0.9-4.2,1.17c0,0-1.72,14.37-0.61,19.6&#10;&#9;&#9;&#9;&#9;&#9;&#9;&#9;c0.46,2.16,1.18,9.56,1.93,17.68c0.64,6.96-0.26,13.98-1.46,20.84c28.12,8.53,48.52,0.53,53.05-1.52&#10;&#9;&#9;&#9;&#9;&#9;&#9;&#9;C113.45,157.29,111.43,152.45,111.13,151.6z" style="fill: rgb(225, 162, 187);"/>
              <path d="M84.71,111.24c7.98,1.73,14.43-0.64,14.39-10.71l-2.99-0.42c0,0,2.02,7.76-7.31,8.09c0,0,0,0,0,0c0,0,0,0,0,0&#10;&#9;&#9;&#9;&#9;&#9;&#9;&#9;c-0.17,0-0.34,0.02-0.53,0.02c-8.47,0.04-8.96-9.11-8.96-9.11l-2.54,0.24C76.98,102.47,78.16,109.82,84.71,111.24z"/>
              <path class="st22" d="M63.61,101.75c8.74-1.04,6.36,10.51,8.07,22.18c1.88,12.82,6.3,28.06,7.56,32.24&#10;&#9;&#9;&#9;&#9;&#9;&#9;&#9;c1.18-1.04,2.48-2.09,4.32-3.67c6.64-5.7,13.33-11.34,20.04-16.95c1.76-4.89,7.02-12.82,9.69-15.19&#10;&#9;&#9;&#9;&#9;&#9;&#9;&#9;c1.81-1.54,2.57-1.75,4.88-2.61c2-0.65,8.31-0.31,8.13,0.88c-2.05,1.65-6.2,0.37-9.42,1.94c2.79-0.33,10.17-0.5,10.38,0.83&#10;&#9;&#9;&#9;&#9;&#9;&#9;&#9;c0.25,1.79-8.24,0.41-10.8,1.96c1.82-0.05,3.69,0.23,5.58,0.09c1.49-0.01,5.26-0.14,5.08,0.65&#10;&#9;&#9;&#9;&#9;&#9;&#9;&#9;c0.54,2.36-10.44,1.26-10.77,2.66c1.74,0.62,4.36,0.25,6.26,0.11c1.41-0.08,3.75,0.21,2.66,1.12&#10;&#9;&#9;&#9;&#9;&#9;&#9;&#9;c-2.07,1.08-2.61,0.79-4.23,1.15c-1.3,0.36-2.16,0.72-3.03,1.06c-1.63,2.61-4.37,7.79-6.35,9.48&#10;&#9;&#9;&#9;&#9;&#9;&#9;&#9;c-1.42,1.38-2.28,0.6-3.91,0.95c-1.17,0.25-3.72,5.02-4.42,5.94c-3.41,4.46-6.92,8.85-10.62,13.09&#10;&#9;&#9;&#9;&#9;&#9;&#9;&#9;c-3.74,4.29-6.44,6.28-10.94,9.8c-2.2,1.72-6.62,3.18-8.79,2.37l0,0.01c-1.57,0-3.16-4.36-3.91-6.13&#10;&#9;&#9;&#9;&#9;&#9;&#9;&#9;c-1.25-2.93-7.19-14.61-10.59-53.41C58.47,112.29,57.33,102.5,63.61,101.75z" style="fill: rgb(255, 201, 187);"/>
              <g>
                <path d="M63.81,119.62c-2.67,0.49-5.09,0.58-7.7,0.41c0.12,1.21,0.36,2.56,0.62,2.63c4.74,1.24,16.92-3.45,16.92-3.45&#10;&#9;&#9;&#9;&#9;&#9;&#9;&#9;&#9;c-0.17-1.12-0.31-2.23-0.47-3.34c-0.95,0.6-1.89,1.08-2.97,1.55C68.14,118.31,66.08,119.21,63.81,119.62z"/>
                <path class="st28" d="M64.43,101.26c-9.15-1.03-8.18,11.28-8.39,17.19c-0.02,0.34,0,0.94,0.07,1.58&#10;&#9;&#9;&#9;&#9;&#9;&#9;&#9;&#9;c2.61,0.17,5.03,0.08,7.7-0.41c2.27-0.41,4.33-1.31,6.4-2.2c1.08-0.47,2.02-0.95,2.97-1.55c-0.36-2.57-0.76-5.1-1.53-7.6&#10;&#9;&#9;&#9;&#9;&#9;&#9;&#9;&#9;C70.62,105.04,67.94,101.67,64.43,101.26z" style="fill: rgb(225, 162, 187);"/>
              </g>
              <g>
                <g>
                  <path class="st24" d="M79.5,155.82c-0.68,1.15-1.56,1.99-2.48,2.79c-0.47,0.38-0.95,0.76-1.47,1.09&#10;&#9;&#9;&#9;&#9;&#9;&#9;&#9;&#9;&#9;c-0.52,0.34-1.06,0.65-1.7,0.87c0.54-1.22,1.39-2.15,2.34-2.96C77.15,156.83,78.21,156.15,79.5,155.82z" style="fill: rgb(211, 155, 140);"/>
                </g>
              </g>
            </g>
          </g>
        </g>
      </g>
      <g>
        <g>
          <g>
            <path class="st1" d="M221.04,121.4c-2.28-1.03-5.33-2.35-7.34-3.85c0.09-1.35,6.67,1.18,9.24,1.72&#10;&#9;&#9;&#9;&#9;&#9;&#9;c-2.18-0.64-6.34-2.84-8.06-4.82c0.27-1.12,6.49,0.93,8.87,2.34c-2.47-1.78-5.25-2.51-6.68-4.96&#10;&#9;&#9;&#9;&#9;&#9;&#9;c-2.08-2.29,12.24,3.7,16.24,6.69c-2-1.5-2.4-3.02-3.26-4.81c0.37-2.04,5.79,4.29,12.39,9.37c0,0,5.58,2.82,11.87,5.92&#10;&#9;&#9;&#9;&#9;&#9;&#9;l8.42,4.07l10.25,4.64l5.49-5.43c2.14-2.18,4.94-5.05,7.89-8.17l0,0c7.26-7.66,20.21-17.6,21.53-20.99&#10;&#9;&#9;&#9;&#9;&#9;&#9;c2.45-6.31,2.24,15.56,2.24,15.56c-5.83,6.56-16.96,16.36-23.27,22.46c-2.4,2.31-8.21,8.38-11.98,10.9l0,0&#10;&#9;&#9;&#9;&#9;&#9;&#9;c-0.01,0.01-0.03,0.02-0.04,0.03c-0.18,0.12-0.37,0.25-0.54,0.35l0.52-0.33c-0.18,0.13-0.41,0.28-0.71,0.45l-0.02-0.14&#10;&#9;&#9;&#9;&#9;&#9;&#9;c-3.9,1.51-6.47-1.56-8.95-2.81c-10.17-5.15-16.93-13-25.57-20.37c-0.76-0.13-1.52-0.23-2.34-0.26&#10;&#9;&#9;&#9;&#9;&#9;&#9;c-2.86-0.12-19.5-5.2-24.16-9.23C215.42,119.52,218.85,120.76,221.04,121.4z" style="fill: rgb(211, 148, 132);"/>
          </g>
          <g>
            <path class="st29" d="M318.26,100.77c0,0-10.02-0.85-11.02-0.38c-1,0.46-17.49,16.39-17.49,16.39s4.19,10.17,12.26,14.45&#10;&#9;&#9;&#9;&#9;&#9;&#9;c0,0,10.28-8.64,16.25-16.82C318.7,113.81,318.26,100.77,318.26,100.77z" style="fill: rgb(160, 76, 74);"/>
          </g>
        </g>
        <g>
          <path class="st30" d="M327.84,87.95c0,0,9.63-0.67,17.94,0l1.81,9.75l-23.6-0.68L327.84,87.95z" style="fill: rgb(73, 42, 42);"/>
          <g>
            <g>
              <path class="st31" d="M321.21,71.19c2.36,4.25,5.54,8.14,9.7,10.71c2.35,1.45,7.99-1.52,10.65-1.72&#10;&#9;&#9;&#9;&#9;&#9;&#9;&#9;c1.91-0.15,3.6-0.52,5.17-1.18c3.06-1.29,5.61-1.32,7.73-4.07c1.03-1.32,2.86-1.64,3.99-2.93c1.22-1.4,0.91-3.31,1.53-4.95&#10;&#9;&#9;&#9;&#9;&#9;&#9;&#9;c0.65-1.74,2.1-2.95,3-4.54c1.63-2.9,1.58-6.35,1.75-9.59c0.13-2.58,1.27-2.11,2.33-4.14c1.23-2.35-0.94-4.43-1.97-6.36&#10;&#9;&#9;&#9;&#9;&#9;&#9;&#9;c-1.33-2.47-0.28-4.05-0.68-6.57c-0.8-5.06-4.69-10.99-9.29-13.33c-4.77-2.42-9.92-2.67-15.13-3.06&#10;&#9;&#9;&#9;&#9;&#9;&#9;&#9;c-5.82-0.43-11.45,1.68-17.33,0.41c-1.77-0.38-3.57-0.77-5.37-0.58c-2.77,0.3-5.2,1.92-7.5,3.49c-0.97,0.66-1.99,1.39-2.4,2.5&#10;&#9;&#9;&#9;&#9;&#9;&#9;&#9;c-0.41,1.1,0.18,2.63,1.36,2.72c-2-0.24-4.03,1.35-4.27,3.35c-0.24,2,1.37,4.03,3.37,4.26c-1.55,0.77-1.88,2.87-1,4.25&#10;&#9;&#9;&#9;&#9;&#9;&#9;&#9;c0.41,0.64,0.99,1.15,1.53,1.69c0.13,0.13,0.27,0.28,0.34,0.46c0.1,0.3-0.03,0.62-0.12,0.93c-0.88,2.93,2.54,5.04,4.29,6.83&#10;&#9;&#9;&#9;&#9;&#9;&#9;&#9;c2.45,2.51,3.34,5.49,3.89,8.9c0.39,2.45-0.52,4.66,0.67,6.83C318.51,67.48,320.1,69.2,321.21,71.19z" style="fill: rgb(168, 99, 49);"/>
            </g>
            <g>
              <path class="st32" d="M333.08,37.57c-0.53,0.4-0.94,1.07-1.47,1.47c5.76,1.47,13.45-1.3,17.6-5.58&#10;&#9;&#9;&#9;&#9;&#9;&#9;&#9;c0.81,4.28,1.27,7.99,1.94,12.27c0.67,3.35,0.8,6.42,1.21,9.77c0.13,2.14,0.4,6.82,1.74,6.82c0.79-0.79,1.47-1.87,1.82-3&#10;&#9;&#9;&#9;&#9;&#9;&#9;&#9;c2.55-2.49,8.87-0.25,6.63,7.24c-1.05,3.52-3.88,4.87-7.04,5.46c-3.39,0.6-2.4,1.46-5.02,4.08c-2.17,2.37-3.97,4.53-9.27,6.94&#10;&#9;&#9;&#9;&#9;&#9;&#9;&#9;c0,0-0.43,1.26-0.32,3.76c0.27,6.36,0.77,7.33,7.21,8.87c-3.53,2.66-7.6,4.57-13.9,4.1c-5.7-0.69-6.57,0.33-10.64-2.5&#10;&#9;&#9;&#9;&#9;&#9;&#9;&#9;c3.33-1.97,6.42-3.69,6.45-5.78c0.01-0.81,0.3-1.95-0.4-7.5c-7.3-0.42-12.69-5.78-13.7-13.25c-0.7-5.66-0.38-12.99,0.06-18.48&#10;&#9;&#9;&#9;&#9;&#9;&#9;&#9;c0.3-3.68-0.55-8.84-0.25-12.87c0.85,0.53,2.36,0.58,3.99,0.58C324.25,39.84,328.8,38.91,333.08,37.57z" style="fill: rgb(249, 219, 205);"/>
            </g>
            <g>
              <g>
                <path class="st7" d="M348.89,44.98c-1.05-3.37-4.78-5.26-8.15-4.2L348.89,44.98z" style="fill: rgb(71, 48, 26);"/>
              </g>
              <g>
                <path class="st7" d="M325.58,41.12c-2.54-0.8-5.44,0.47-6.22,3.46L325.58,41.12z" style="fill: rgb(71, 48, 26);"/>
              </g>
              <g>
                <path class="st33" d="M339.29,71.21c0,0-0.15,0.17-0.43,0.45c-0.28,0.27-0.72,0.67-1.3,1.03c-0.56,0.39-1.29,0.75-2.1,1.07&#10;&#9;&#9;&#9;&#9;&#9;&#9;&#9;&#9;c-0.41,0.13-0.83,0.31-1.28,0.39c-0.45,0.11-0.91,0.18-1.38,0.24c-0.47,0.02-0.95,0.05-1.42,0.01&#10;&#9;&#9;&#9;&#9;&#9;&#9;&#9;&#9;c-0.48-0.01-0.93-0.12-1.37-0.23c-0.88-0.25-1.66-0.65-2.19-1.16c-0.28-0.22-0.49-0.48-0.66-0.72&#10;&#9;&#9;&#9;&#9;&#9;&#9;&#9;&#9;c-0.18-0.22-0.3-0.43-0.38-0.63c-0.17-0.37-0.25-0.58-0.25-0.58L339.29,71.21z" style="fill: rgb(142, 48, 48);"/>
              </g>
              <g>
                <path d="M341.9,57.19c0,1.09,0.69,1.98,1.53,1.98c0.84,0,1.52-0.89,1.52-1.98c0-1.09-0.68-1.98-1.52-1.98&#10;&#9;&#9;&#9;&#9;&#9;&#9;&#9;&#9;C342.59,55.21,341.9,56.1,341.9,57.19z"/>
              </g>
              <g>
                <path d="M323.99,57.19c0,1.09,0.68,1.98,1.53,1.98c0.84,0,1.52-0.89,1.52-1.98c0-1.09-0.68-1.98-1.52-1.98&#10;&#9;&#9;&#9;&#9;&#9;&#9;&#9;&#9;C324.68,55.21,323.99,56.1,323.99,57.19z"/>
              </g>
              <g>
                <path class="st24" d="M330.39,53.67c0.58,1.02,0.79,2.27,0.71,3.47c-0.07,1.21-0.37,2.37-0.72,3.49l-1.07,3.26&#10;&#9;&#9;&#9;&#9;&#9;&#9;&#9;&#9;c-0.31,1.07-0.56,2.14-0.56,3.21l-0.43-0.5c0.67,0.19,1.54,0.04,2.33-0.22c0.8-0.27,1.59-0.66,2.27-1.25&#10;&#9;&#9;&#9;&#9;&#9;&#9;&#9;&#9;c-0.44,0.8-1.18,1.41-1.99,1.87c-0.82,0.44-1.74,0.79-2.84,0.65l-0.38-0.05l-0.04-0.45c-0.12-1.24,0.08-2.48,0.41-3.62&#10;&#9;&#9;&#9;&#9;&#9;&#9;&#9;&#9;c0.31-1.15,0.76-2.23,1.16-3.3c0.41-1.07,0.8-2.12,1.04-3.2C330.52,55.95,330.59,54.83,330.39,53.67z" style="fill: rgb(211, 155, 140);"/>
              </g>
            </g>
          </g>
          <g>
            <g>
              <g>
                <g>
                  <g>
                    <path class="st34" d="M295.61,376.74c0.14-0.06,0.28-0.12,0.44-0.17c1.6-0.55,4.2-1.74,7.03-3.13&#10;&#9;&#9;&#9;&#9;&#9;&#9;&#9;&#9;&#9;&#9;c2.11,1.07,3.36,2.82,3.62,4.95c-0.56,0.03-1.12,0.05-1.69,0.05C301.65,378.43,298.63,377.68,295.61,376.74z" style="fill: rgb(239, 249, 255);"/>
                  </g>
                </g>
                <g>
                  <g>
                    <path class="st35" d="M295.61,376.74c3.02,0.94,6.04,1.69,9.4,1.69c3.21,0,6.15-0.4,9.23-1.07&#10;&#9;&#9;&#9;&#9;&#9;&#9;&#9;&#9;&#9;&#9;c2.81-0.54,5.75-0.93,8.55-1.47c2.45-0.56,4.91-1.6,7.36-2.38v1.95c0,0-29.51,7.18-35.56,3.64&#10;&#9;&#9;&#9;&#9;&#9;&#9;&#9;&#9;&#9;&#9;C294.59,379.1,293.48,377.68,295.61,376.74z" style="fill: rgb(186, 186, 186);"/>
                  </g>
                </g>
                <g>
                  <g>
                    <path class="st36" d="M317.89,362.88c-0.2,1.68-0.47,2.72-0.85,2.98c-0.15,0.11-0.36,0.23-0.59,0.38&#10;&#9;&#9;&#9;&#9;&#9;&#9;&#9;&#9;&#9;&#9;c-2.25,1.41-8.21,4.65-13.37,7.18c2.11,1.07,3.36,2.82,3.62,4.95c2.57-0.11,5.01-0.47,7.54-1.02&#10;&#9;&#9;&#9;&#9;&#9;&#9;&#9;&#9;&#9;&#9;c2.81-0.54,5.75-0.93,8.55-1.47c2.45-0.56,4.91-1.6,7.36-2.38v-2.93v-1.68c0.02-0.65,0.03-1.37,0.05-2.12&#10;&#9;&#9;&#9;&#9;&#9;&#9;&#9;&#9;&#9;&#9;c0.03-1.18,0.07-2.5,0.11-3.9H317.89z" style="fill: rgb(138, 37, 47);"/>
                  </g>
                </g>
                <g>
                  <g>
                    <g>
                      <path class="st37" d="M319.37,370.31c0.11,0,0.22-0.03,0.31-0.1c0.27-0.18,0.35-0.53,0.17-0.8&#10;&#9;&#9;&#9;&#9;&#9;&#9;&#9;&#9;&#9;&#9;&#9;c-1.72-2.65-3.7-3.02-5.57-3.02c-0.32,0-0.58,0.26-0.58,0.58c0,0.32,0.26,0.58,0.58,0.58c1.84,0,3.26,0.41,4.6,2.48&#10;&#9;&#9;&#9;&#9;&#9;&#9;&#9;&#9;&#9;&#9;&#9;C319,370.22,319.18,370.31,319.37,370.31z" style="fill: rgb(235, 238, 224);"/>
                    </g>
                  </g>
                </g>
                <g>
                  <g>
                    <g>
                      <path class="st37" d="M316.83,371.97c0.11,0,0.21-0.03,0.31-0.1c0.27-0.17,0.34-0.53,0.17-0.8&#10;&#9;&#9;&#9;&#9;&#9;&#9;&#9;&#9;&#9;&#9;&#9;c-1.72-2.65-3.69-3.02-5.57-3.02c-0.32,0-0.57,0.26-0.57,0.58s0.26,0.58,0.57,0.58c1.85,0,3.26,0.42,4.61,2.49&#10;&#9;&#9;&#9;&#9;&#9;&#9;&#9;&#9;&#9;&#9;&#9;C316.45,371.88,316.64,371.97,316.83,371.97z" style="fill: rgb(235, 238, 224);"/>
                    </g>
                  </g>
                </g>
                <g>
                  <g>
                    <g>
                      <path class="st37" d="M313.9,373.34c0.11,0,0.22-0.03,0.32-0.09c0.27-0.17,0.34-0.54,0.17-0.8&#10;&#9;&#9;&#9;&#9;&#9;&#9;&#9;&#9;&#9;&#9;&#9;c-1.72-2.65-3.69-3.02-5.57-3.02c-0.32,0-0.58,0.26-0.58,0.58c0,0.32,0.26,0.58,0.58,0.58c1.85,0,3.26,0.42,4.6,2.49&#10;&#9;&#9;&#9;&#9;&#9;&#9;&#9;&#9;&#9;&#9;&#9;C313.52,373.25,313.71,373.34,313.9,373.34z" style="fill: rgb(235, 238, 224);"/>
                    </g>
                  </g>
                </g>
              </g>
              <g>
                <g>
                  <g>
                    <path class="st34" d="M381.31,380.02c-0.14-0.06-0.29-0.11-0.45-0.17c-1.59-0.55-4.19-1.73-7.03-3.13&#10;&#9;&#9;&#9;&#9;&#9;&#9;&#9;&#9;&#9;&#9;c-2.11,1.07-3.36,2.82-3.62,4.95c0.56,0.02,1.12,0.05,1.69,0.05C375.27,381.71,378.29,380.96,381.31,380.02z" style="fill: rgb(239, 249, 255);"/>
                  </g>
                </g>
                <g>
                  <g>
                    <path class="st35" d="M381.31,380.02c-3.02,0.94-6.04,1.7-9.41,1.7c-3.21,0-6.15-0.4-9.22-1.06&#10;&#9;&#9;&#9;&#9;&#9;&#9;&#9;&#9;&#9;&#9;c-2.82-0.53-5.76-0.94-8.56-1.47c-2.45-0.56-4.91-1.59-7.36-2.39v1.96c0,0,29.51,7.18,35.57,3.63&#10;&#9;&#9;&#9;&#9;&#9;&#9;&#9;&#9;&#9;&#9;C382.34,382.38,383.44,380.96,381.31,380.02z" style="fill: rgb(186, 186, 186);"/>
                  </g>
                </g>
                <g>
                  <g>
                    <path class="st36" d="M358.89,364.23c0.17,2.82,0.48,4.56,0.98,4.92c0.15,0.1,0.36,0.24,0.6,0.39&#10;&#9;&#9;&#9;&#9;&#9;&#9;&#9;&#9;&#9;&#9;c2.26,1.4,8.21,4.64,13.37,7.18c-2.11,1.07-3.36,2.82-3.62,4.95c-2.57-0.12-5.01-0.47-7.52-1.02&#10;&#9;&#9;&#9;&#9;&#9;&#9;&#9;&#9;&#9;&#9;c-2.82-0.53-5.76-0.94-8.56-1.47c-2.45-0.56-4.91-1.59-7.36-2.39v-2.92v-1.69c-0.01-0.65-0.03-1.36-0.05-2.11&#10;&#9;&#9;&#9;&#9;&#9;&#9;&#9;&#9;&#9;&#9;c-0.04-1.71-0.1-3.69-0.17-5.83H358.89z" style="fill: rgb(138, 37, 47);"/>
                  </g>
                </g>
                <g>
                  <g>
                    <g>
                      <path class="st37" d="M357.7,373.66c-0.11,0-0.22-0.03-0.32-0.1c-0.27-0.17-0.34-0.54-0.17-0.8&#10;&#9;&#9;&#9;&#9;&#9;&#9;&#9;&#9;&#9;&#9;&#9;c1.72-2.65,3.69-3.02,5.57-3.02c0.32,0,0.58,0.26,0.58,0.58c0,0.32-0.26,0.58-0.58,0.58c-1.84,0-3.26,0.42-4.6,2.48&#10;&#9;&#9;&#9;&#9;&#9;&#9;&#9;&#9;&#9;&#9;&#9;C358.08,373.57,357.89,373.66,357.7,373.66z" style="fill: rgb(235, 238, 224);"/>
                    </g>
                  </g>
                </g>
                <g>
                  <g>
                    <g>
                      <path class="st37" d="M360.24,375.32c-0.11,0-0.22-0.03-0.31-0.09c-0.27-0.18-0.34-0.53-0.17-0.8&#10;&#9;&#9;&#9;&#9;&#9;&#9;&#9;&#9;&#9;&#9;&#9;c1.72-2.65,3.69-3.02,5.57-3.02c0.32,0,0.58,0.26,0.58,0.58c0,0.33-0.26,0.58-0.58,0.58c-1.84,0-3.26,0.42-4.6,2.48&#10;&#9;&#9;&#9;&#9;&#9;&#9;&#9;&#9;&#9;&#9;&#9;C360.62,375.23,360.43,375.32,360.24,375.32z" style="fill: rgb(235, 238, 224);"/>
                    </g>
                  </g>
                </g>
                <g>
                  <g>
                    <g>
                      <path class="st37" d="M363.17,376.7c-0.11,0-0.22-0.03-0.31-0.09c-0.27-0.18-0.35-0.54-0.17-0.8&#10;&#9;&#9;&#9;&#9;&#9;&#9;&#9;&#9;&#9;&#9;&#9;c1.72-2.65,3.69-3.02,5.57-3.02c0.32,0,0.58,0.26,0.58,0.59c0,0.32-0.26,0.58-0.58,0.58c-1.85,0-3.26,0.42-4.6,2.49&#10;&#9;&#9;&#9;&#9;&#9;&#9;&#9;&#9;&#9;&#9;&#9;C363.54,376.6,363.36,376.7,363.17,376.7z" style="fill: rgb(235, 238, 224);"/>
                    </g>
                  </g>
                </g>
              </g>
            </g>
            <g>
              <g>
                <g>
                  <path class="st38" d="M365.1,195.19c0,0-1.55,78.89-1.55,94.87c0,0,0.33,75.94-0.43,78.48c0,0-12.11,3.06-18.45-0.47&#10;&#9;&#9;&#9;&#9;&#9;&#9;&#9;&#9;&#9;c0,0,0.37-33.12,0.37-44.28c0-11.16-8.06-99.18-8.06-99.18l-5.57-2.29l1.28,142.03c0,0-13.21,5.04-18.17-0.1&#10;&#9;&#9;&#9;&#9;&#9;&#9;&#9;&#9;&#9;c0,0-2.06-48.59-2.38-56.7c-0.32-8.12-5.78-105.52-3.5-112.37H365.1z" style="fill: rgb(139, 164, 204);"/>
                </g>
              </g>
              <g>
                <g>
                  <path class="st39" d="M338.87,225.63c0,0-1.1-0.17-2.63-0.65c-1.54-0.46-3.53-1.23-5.45-2.12c-1.92-0.9-3.78-1.94-5.13-2.82&#10;&#9;&#9;&#9;&#9;&#9;&#9;&#9;&#9;&#9;c-1.35-0.87-2.18-1.6-2.18-1.6s1.09,0.17,2.62,0.65c1.54,0.46,3.53,1.22,5.45,2.12c1.92,0.91,3.78,1.94,5.12,2.83&#10;&#9;&#9;&#9;&#9;&#9;&#9;&#9;&#9;&#9;C338.03,224.91,338.87,225.63,338.87,225.63z" style="fill: rgb(98, 123, 160);"/>
                </g>
              </g>
              <g>
                <g>
                  <path class="st39" d="M333.37,198.49c0,0,0.01,0.35,0.09,0.96c0.07,0.6,0.17,1.46,0.29,2.49c0.23,2.06,0.45,4.81,0.53,7.57&#10;&#9;&#9;&#9;&#9;&#9;&#9;&#9;&#9;&#9;c0.08,2.76,0.02,5.52-0.15,7.6c-0.16,2.07-0.44,3.48-0.51,3.45c0.07,0.01-0.27-1.37-0.54-3.43&#10;&#9;&#9;&#9;&#9;&#9;&#9;&#9;&#9;&#9;c-0.29-2.06-0.54-4.81-0.62-7.58c-0.08-2.77,0.02-5.54,0.25-7.62c0.11-1.04,0.26-1.91,0.39-2.51&#10;&#9;&#9;&#9;&#9;&#9;&#9;&#9;&#9;&#9;C333.23,198.82,333.37,198.49,333.37,198.49z" style="fill: rgb(98, 123, 160);"/>
                </g>
              </g>
              <g>
                <g>
                  <path class="st39" d="M329.57,200.78c0,0,0.3,0.99,0.49,2.46c0.22,1.48,0.38,3.42,0.54,5.34c0.15,1.91,0.34,3.79,0.66,5.16&#10;&#9;&#9;&#9;&#9;&#9;&#9;&#9;&#9;&#9;c0.11,0.33,0.15,0.67,0.26,0.93c0.11,0.26,0.17,0.53,0.27,0.71c0.2,0.39,0.31,0.62,0.31,0.62s-0.21-0.12-0.59-0.39&#10;&#9;&#9;&#9;&#9;&#9;&#9;&#9;&#9;&#9;c-0.36-0.29-0.82-0.78-1.23-1.46c-0.39-0.68-0.76-1.53-1-2.47c-0.28-0.94-0.39-1.95-0.51-2.95c-0.15-2.02,0-4.02,0.25-5.49&#10;&#9;&#9;&#9;&#9;&#9;&#9;&#9;&#9;&#9;C329.25,201.76,329.57,200.78,329.57,200.78z" style="fill: rgb(98, 123, 160);"/>
                </g>
              </g>
              <g>
                <path class="st40" d="M365.09,191.94v5.23c0,0-35.91,5.29-56.84-0.65l-0.18-6.46C308.07,190.06,328.46,195.99,365.09,191.94z&#10;&#9;&#9;&#9;&#9;&#9;&#9;&#9;&#9;" style="fill: rgb(46, 47, 51);"/>
              </g>
              <g>
                <path class="st9" d="M354.7,200.48c0.07-0.33,0-10.41,0-10.41l-2.4,1.8v9.46L354.7,200.48z" style="fill: rgb(76, 72, 68);"/>
              </g>
              <g>
                <polyline class="st9" points="314.94,200.48 314.94,190.06 312.02,190.06 312.02,201.32 314.36,201.32 &#9;&#9;&#9;&#9;&#9;&#9;&#9;" style="fill: rgb(76, 72, 68);"/>
              </g>
            </g>
          </g>
          <g>
            <g>
              <path class="st29" d="M322.94,172.81c0.23-10.4,0.46-21.04,1.16-31.67c0.69-9.94,0.69-19.65,1.39-29.36&#10;&#9;&#9;&#9;&#9;&#9;&#9;&#9;c0.33-5.44,0.77-11.23,0.66-16.79c-0.21-0.2-0.37-0.39-0.22-0.42c-7.67,1.5-14.47,3.18-18.69,5.82l1.83,38.28&#10;&#9;&#9;&#9;&#9;&#9;&#9;&#9;c0.96,18.19-4.8,66.98-6.09,68.74c2.91,2.64,8.35,3.01,12.25,3.49c2.23,0.27,4.48,0.51,6.74,0.72&#10;&#9;&#9;&#9;&#9;&#9;&#9;&#9;C321.84,202.12,322.76,182.32,322.94,172.81z" style="fill: rgb(160, 76, 74);"/>
              <path class="st26" d="M346.52,156.63c0.46-11.33,0.69-22.43,0.92-33.75c0.23-5.32,0-10.87,0.23-16.41&#10;&#9;&#9;&#9;&#9;&#9;&#9;&#9;c0.16-4.03,0.64-8.29,0.54-12.46c-0.15,0-0.24,0-0.24,0c-0.13,0.41-0.9,0.79-1.53,1.03c-0.6,0.22-10.38,4.3-19.78,0.39&#10;&#9;&#9;&#9;&#9;&#9;&#9;&#9;c0,0-0.29-0.22-0.52-0.43c0.11,5.56-0.33,11.35-0.66,16.79c-0.69,9.71-0.69,19.42-1.39,29.36&#10;&#9;&#9;&#9;&#9;&#9;&#9;&#9;c-0.69,10.63-0.92,21.27-1.16,31.67c-0.19,9.51-1.1,19.31-0.98,28.81c7.99,0.74,16.18,1.06,24.32,0.95&#10;&#9;&#9;&#9;&#9;&#9;&#9;&#9;C346.26,187.19,345.85,172.02,346.52,156.63z" style="fill: rgb(255, 255, 255);"/>
              <path class="st29" d="M366.41,112.76c0.05-4.77,2.25-11.42,0.34-15.8c-1.22-2.81-16.44-2.95-18.53-2.96&#10;&#9;&#9;&#9;&#9;&#9;&#9;&#9;c0.11,4.17-0.38,8.42-0.54,12.46c-0.23,5.55,0,11.1-0.23,16.41c-0.23,11.33-0.46,22.43-0.92,33.75&#10;&#9;&#9;&#9;&#9;&#9;&#9;&#9;c-0.67,15.39-0.27,40.57-0.24,55.94c7.09-0.1,14.14-0.51,20.99-1.31C367.69,207.58,366.3,123.25,366.41,112.76z" style="fill: rgb(160, 76, 74);"/>
              <path class="st41" d="M325.01,114c-0.29-4.2-0.68-8.39-1.66-12.49c-1.07,0.39-2.24,2.73-2.83,3.71&#10;&#9;&#9;&#9;&#9;&#9;&#9;&#9;c-0.68,0.78-1.76,2.54-2.73,2.83c-0.49-0.88,0.1-2.05,0.39-2.93c0.49-1.37,0.88-2.83,1.27-4.29c0.49-1.95,1.07-3.9,1.76-5.85&#10;&#9;&#9;&#9;&#9;&#9;&#9;&#9;c0.58-1.66,0.97-3.71,1.95-5.27c1.17-1.56,2.93-1.85,4.68-1.76c-0.1,2.63-0.78,5.17-0.98,7.81L325.01,114z" style="fill: rgb(114, 49, 49);"/>
              <path class="st41" d="M347.61,114c0.29-4.2,0.68-8.39,1.66-12.49c1.07,0.39,2.24,2.73,2.83,3.71&#10;&#9;&#9;&#9;&#9;&#9;&#9;&#9;c0.68,0.78,1.76,2.54,2.73,2.83c0.49-0.88-0.1-2.05-0.39-2.93c-0.49-1.37-0.88-2.83-1.27-4.29&#10;&#9;&#9;&#9;&#9;&#9;&#9;&#9;c-0.49-1.95-1.73-9.56-2.71-11.12c-1.17-1.56-2.93-1.85-4.68-1.76C345.87,90.59,347.61,114,347.61,114z" style="fill: rgb(114, 49, 49);"/>
            </g>
            <g>
              <g>
                <g>
                  <path class="st42" d="M405.39,120.32c1.49-5.15,2-7.71,3.29-12.91c0.66-2.67,1.31-5.34,1.95-8.01&#10;&#9;&#9;&#9;&#9;&#9;&#9;&#9;&#9;&#9;c0.49-2.05,0.83-4.13,1.13-6.2c0.28-2.13,0.53-4.26,0.68-6.35c0.53-7.3,0.71-14.45,1.24-21.74&#10;&#9;&#9;&#9;&#9;&#9;&#9;&#9;&#9;&#9;c0.24-3.32-0.32-7.02,0.41-10.3c0.67-2.29,2.6-4,2.9-0.96c0.45,4.53,0.45,8.66,0.39,13.27c-0.01,0.69-0.25,3.24-0.25,3.24&#10;&#9;&#9;&#9;&#9;&#9;&#9;&#9;&#9;&#9;c2.56-5.48,2.54-11.98,5.28-17.62c0.42-1.14,1.49-4.56,3.25-3.43c0.79,0.56,0.73,3.72,1,4.57c4.03-2.71,3.02,4.38,2.68,6.69&#10;&#9;&#9;&#9;&#9;&#9;&#9;&#9;&#9;&#9;c-0.42,3.47-1.29,8.57-2.84,11.63c1.2-2.75,4.71-7.78,5.55-7.6c3.09,1.06-2.89,9.96-4.4,14.68&#10;&#9;&#9;&#9;&#9;&#9;&#9;&#9;&#9;&#9;c-1.01,2.43-0.53,4.96-2.03,7.35c-1.23,1.83-3.31,2.92-5.35,3.8c-0.73,8.69-2.71,35.35-4.53,42.25&#10;&#9;&#9;&#9;&#9;&#9;&#9;&#9;&#9;&#9;c-0.54,2.06-1.49,6.18-4.04,6.71c-7.7-0.23-44.18-19.52-44.18-19.52s-8.44-20.91-8.83-23.34&#10;&#9;&#9;&#9;&#9;&#9;&#9;&#9;&#9;&#9;C357.97,92.09,395.78,114.41,405.39,120.32z" style="fill: rgb(255, 205, 187);"/>
                </g>
                <g>
                  <path class="st42" d="M412.51,90.35c0.11-1.49-2.01-4.48-3.06-6.05c-2.21-3.99-2.77-10.04-2.62-14.52&#10;&#9;&#9;&#9;&#9;&#9;&#9;&#9;&#9;&#9;c0-2.33,0.24-10.15,2.74-5.63c1.79,2.96,1.65,7.12,1.58,10.45c3.79,0.61,6.27,7.79,5.92,10.26" style="fill: rgb(255, 205, 187);"/>
                </g>
                <g>
                  <path class="st43" d="M426.33,53.69c0,0,0.01,0.27,0,0.75c-0.02,0.47-0.01,1.16-0.05,1.97c-0.02,0.41-0.05,0.84-0.08,1.31&#10;&#9;&#9;&#9;&#9;&#9;&#9;&#9;&#9;&#9;c-0.03,0.46-0.13,0.95-0.21,1.46c-0.16,1.01-0.38,2.08-0.59,3.16c-0.53,2.1-1.13,4.19-1.67,5.72&#10;&#9;&#9;&#9;&#9;&#9;&#9;&#9;&#9;&#9;c-0.26,0.77-0.52,1.4-0.68,1.85c-0.17,0.44-0.28,0.69-0.28,0.69s0.03-0.27,0.1-0.74c0.08-0.47,0.16-1.15,0.31-1.94&#10;&#9;&#9;&#9;&#9;&#9;&#9;&#9;&#9;&#9;c0.3-1.6,0.73-3.71,1.25-5.81c0.22-1.04,0.45-2.09,0.69-3.06c0.1-0.49,0.26-0.95,0.34-1.41c0.09-0.46,0.17-0.89,0.25-1.29&#10;&#9;&#9;&#9;&#9;&#9;&#9;&#9;&#9;&#9;c0.15-0.8,0.33-1.46,0.43-1.92C426.26,53.95,426.33,53.69,426.33,53.69z" style="fill: rgb(204, 102, 102);"/>
                </g>
                <g>
                  <path class="st43" d="M411.21,74.23c0.28,0.08,0.56,0.15,0.83,0.25c0.25,0.14,0.52,0.25,0.75,0.41&#10;&#9;&#9;&#9;&#9;&#9;&#9;&#9;&#9;&#9;c0.22,0.17,0.46,0.32,0.66,0.51c0.19,0.2,0.4,0.38,0.58,0.58c0.36,0.41,0.68,0.85,0.97,1.3c0.28,0.46,0.54,0.93,0.76,1.41&#10;&#9;&#9;&#9;&#9;&#9;&#9;&#9;&#9;&#9;c0.22,0.49,0.43,0.98,0.6,1.48c0.18,0.5,0.33,1.01,0.45,1.53c0.13,0.51,0.23,1.04,0.28,1.56c0.06,0.53,0.06,1.06-0.01,1.58&#10;&#9;&#9;&#9;&#9;&#9;&#9;&#9;&#9;&#9;c0.03-0.53-0.02-1.05-0.13-1.56c-0.1-0.51-0.23-1.02-0.38-1.52c-0.16-0.5-0.33-0.99-0.54-1.47c-0.2-0.48-0.43-0.95-0.68-1.4&#10;&#9;&#9;&#9;&#9;&#9;&#9;&#9;&#9;&#9;c-0.24-0.46-0.52-0.89-0.8-1.32c-0.3-0.42-0.61-0.82-0.96-1.19c-0.17-0.19-0.37-0.34-0.55-0.51&#10;&#9;&#9;&#9;&#9;&#9;&#9;&#9;&#9;&#9;c-0.19-0.17-0.4-0.29-0.6-0.43c-0.21-0.14-0.44-0.21-0.65-0.32c-0.22-0.08-0.46-0.12-0.68-0.18l-0.3-0.09" style="fill: rgb(204, 102, 102);"/>
                </g>
                <g>
                  <path class="st43" d="M418.89,70.06c0,0,0.52-0.04,1.27,0.03c0.75,0.06,1.73,0.23,2.69,0.47c0.96,0.25,1.88,0.67,2.55,1&#10;&#9;&#9;&#9;&#9;&#9;&#9;&#9;&#9;&#9;c0.67,0.34,1.09,0.65,1.09,0.65s-0.52,0.01-1.26-0.1c-0.37-0.05-0.8-0.13-1.24-0.23c-0.45-0.1-0.91-0.25-1.4-0.35&#10;&#9;&#9;&#9;&#9;&#9;&#9;&#9;&#9;&#9;c-0.96-0.25-1.89-0.57-2.57-0.88C419.33,70.34,418.89,70.06,418.89,70.06z" style="fill: rgb(204, 102, 102);"/>
                </g>
              </g>
              <g>
                <path class="st29" d="M353.04,94.51l10.92,0.56c1.82,0.92,25.13,15.86,25.13,15.86s-5.64,14.03-10.65,17.32l-19.36-8.56&#10;&#9;&#9;&#9;&#9;&#9;&#9;&#9;&#9;l-2.38-13.74L353.04,94.51z" style="fill: rgb(160, 76, 74);"/>
              </g>
              <g>
                <defs>
                  <path id="SVGID_5_" d="M325.93,94.57c-7.67,1.5-14.47,3.18-18.69,5.82c-1,0.46-17.49,16.39-17.49,16.39&#10;&#9;&#9;&#9;&#9;&#9;&#9;&#9;&#9;&#9;s4.19,10.17,12.26,14.45c0,0,2.85-2.4,6.42-5.86l0.63,13.3c0.96,18.19-4.8,66.98-6.09,68.74c2.91,2.64,8.35,3.01,12.25,3.49&#10;&#9;&#9;&#9;&#9;&#9;&#9;&#9;&#9;&#9;c2.23,0.27,4.48,0.51,6.74,0.72c-0.13-9.5,0.79-29.3,0.98-38.81c0.23-10.4,0.46-21.04,1.16-31.67&#10;&#9;&#9;&#9;&#9;&#9;&#9;&#9;&#9;&#9;c0.69-9.94,0.69-19.65,1.39-29.36c0.33-5.44,0.77-11.23,0.66-16.79C325.94,94.79,325.77,94.6,325.93,94.57z"/>
                </defs>
                <clipPath id="SVGID_6_">
                  <path d="M325.93,94.57c-7.67,1.5-14.47,3.18-18.69,5.82c-1,0.46-17.49,16.39-17.49,16.39&#10;&#9;&#9;&#9;&#9;&#9;&#9;&#9;&#9;&#9;s4.19,10.17,12.26,14.45c0,0,2.85-2.4,6.42-5.86l0.63,13.3c0.96,18.19-4.8,66.98-6.09,68.74c2.91,2.64,8.35,3.01,12.25,3.49&#10;&#9;&#9;&#9;&#9;&#9;&#9;&#9;&#9;&#9;c2.23,0.27,4.48,0.51,6.74,0.72c-0.13-9.5,0.79-29.3,0.98-38.81c0.23-10.4,0.46-21.04,1.16-31.67&#10;&#9;&#9;&#9;&#9;&#9;&#9;&#9;&#9;&#9;c0.69-9.94,0.69-19.65,1.39-29.36c0.33-5.44,0.77-11.23,0.66-16.79C325.94,94.79,325.77,94.6,325.93,94.57z" style="overflow: visible;"/>
                </clipPath>
                <g class="st44" style="clip-path: url('#SVGID_6_');">
                  <g>
                    <rect x="286.49" y="103.37" class="st45" width="117.85" height="7.44" style="fill: rgb(114, 49, 49); opacity: 0.5;"/>
                    <rect x="286.49" y="121.82" class="st45" width="117.85" height="7.44" style="fill: rgb(114, 49, 49); opacity: 0.5;"/>
                    <rect x="286.49" y="140.27" class="st45" width="117.85" height="7.44" style="fill: rgb(114, 49, 49); opacity: 0.5;"/>
                    <rect x="286.49" y="158.72" class="st45" width="117.85" height="7.44" style="fill: rgb(114, 49, 49); opacity: 0.5;"/>
                    <rect x="286.49" y="177.18" class="st45" width="117.85" height="7.44" style="fill: rgb(114, 49, 49); opacity: 0.5;"/>
                    <rect x="286.49" y="195.63" class="st45" width="117.85" height="7.44" style="fill: rgb(114, 49, 49); opacity: 0.5;"/>
                  </g>
                  <g>
                    <rect x="378.41" y="94.29" class="st46" width="3.86" height="117.85" style="fill: rgb(114, 49, 49); opacity: 0.2;"/>
                    <rect x="351.13" y="94.29" class="st46" width="3.86" height="117.85" style="fill: rgb(114, 49, 49); opacity: 0.2;"/>
                    <rect x="364.77" y="94.29" class="st46" width="3.86" height="117.85" style="fill: rgb(114, 49, 49); opacity: 0.2;"/>
                    <rect x="337.49" y="94.29" class="st46" width="3.86" height="117.85" style="fill: rgb(114, 49, 49); opacity: 0.2;"/>
                    <rect x="323.85" y="94.29" class="st46" width="3.86" height="117.85" style="fill: rgb(114, 49, 49); opacity: 0.2;"/>
                    <rect x="310.21" y="94.29" class="st46" width="3.86" height="117.85" style="fill: rgb(114, 49, 49); opacity: 0.2;"/>
                    <rect x="296.57" y="94.29" class="st46" width="3.86" height="117.85" style="fill: rgb(114, 49, 49); opacity: 0.2;"/>
                  </g>
                </g>
              </g>
              <g>
                <defs>
                  <path id="SVGID_7_" d="M366.46,96.57c-0.27-0.27-0.67-0.51-1.19-0.73c-0.65-0.39-1.11-0.67-1.31-0.77l-1.97-0.1&#10;&#9;&#9;&#9;&#9;&#9;&#9;&#9;&#9;&#9;c-5.03-0.9-12.36-0.96-13.77-0.97c0.11,4.17-0.38,8.42-0.54,12.46c-0.23,5.55,0,11.1-0.23,16.41&#10;&#9;&#9;&#9;&#9;&#9;&#9;&#9;&#9;&#9;c-0.23,11.33-0.46,22.43-0.92,33.75c-0.67,15.39-0.27,40.57-0.24,55.94c7.09-0.1,14.14-0.51,20.99-1.31&#10;&#9;&#9;&#9;&#9;&#9;&#9;&#9;&#9;&#9;c0.35-3.09-0.57-62.9-0.81-88.3l11.98,5.29c5.01-3.28,10.65-17.32,10.65-17.32S372.91,100.56,366.46,96.57z"/>
                </defs>
                <clipPath id="SVGID_8_">
                  <path d="M366.46,96.57c-0.27-0.27-0.67-0.51-1.19-0.73c-0.65-0.39-1.11-0.67-1.31-0.77l-1.97-0.1&#10;&#9;&#9;&#9;&#9;&#9;&#9;&#9;&#9;&#9;c-5.03-0.9-12.36-0.96-13.77-0.97c0.11,4.17-0.38,8.42-0.54,12.46c-0.23,5.55,0,11.1-0.23,16.41&#10;&#9;&#9;&#9;&#9;&#9;&#9;&#9;&#9;&#9;c-0.23,11.33-0.46,22.43-0.92,33.75c-0.67,15.39-0.27,40.57-0.24,55.94c7.09-0.1,14.14-0.51,20.99-1.31&#10;&#9;&#9;&#9;&#9;&#9;&#9;&#9;&#9;&#9;c0.35-3.09-0.57-62.9-0.81-88.3l11.98,5.29c5.01-3.28,10.65-17.32,10.65-17.32S372.91,100.56,366.46,96.57z" style="overflow: visible;"/>
                </clipPath>
                <g class="st47" style="clip-path: url('#SVGID_8_');">
                  <g>
                    <rect x="286.49" y="103.37" class="st45" width="117.85" height="7.44" style="fill: rgb(114, 49, 49); opacity: 0.5;"/>
                    <rect x="286.49" y="121.82" class="st45" width="117.85" height="7.44" style="fill: rgb(114, 49, 49); opacity: 0.5;"/>
                    <rect x="286.49" y="140.27" class="st45" width="117.85" height="7.44" style="fill: rgb(114, 49, 49); opacity: 0.5;"/>
                    <rect x="286.49" y="158.72" class="st45" width="117.85" height="7.44" style="fill: rgb(114, 49, 49); opacity: 0.5;"/>
                    <rect x="286.49" y="177.18" class="st45" width="117.85" height="7.44" style="fill: rgb(114, 49, 49); opacity: 0.5;"/>
                    <rect x="286.49" y="195.63" class="st45" width="117.85" height="7.44" style="fill: rgb(114, 49, 49); opacity: 0.5;"/>
                  </g>
                  <g>
                    <rect x="378.41" y="94.29" class="st46" width="3.86" height="117.85" style="fill: rgb(114, 49, 49); opacity: 0.2;"/>
                    <rect x="351.13" y="94.29" class="st46" width="3.86" height="117.85" style="fill: rgb(114, 49, 49); opacity: 0.2;"/>
                    <rect x="364.77" y="94.29" class="st46" width="3.86" height="117.85" style="fill: rgb(114, 49, 49); opacity: 0.2;"/>
                    <rect x="337.49" y="94.29" class="st46" width="3.86" height="117.85" style="fill: rgb(114, 49, 49); opacity: 0.2;"/>
                    <rect x="323.85" y="94.29" class="st46" width="3.86" height="117.85" style="fill: rgb(114, 49, 49); opacity: 0.2;"/>
                    <rect x="310.21" y="94.29" class="st46" width="3.86" height="117.85" style="fill: rgb(114, 49, 49); opacity: 0.2;"/>
                    <rect x="296.57" y="94.29" class="st46" width="3.86" height="117.85" style="fill: rgb(114, 49, 49); opacity: 0.2;"/>
                  </g>
                </g>
              </g>
            </g>
          </g>
        </g>
      </g>
      <g>
        <g>
          <g>
            <g>
              <g>
                <g>
                  <path d="M286.51,82.54c0.66,2.18-0.98,3.87-1.61,5.98c-0.86,2.9,1.53,2.94,3.3,4.67c2.98,2.91,3.58,8.65,1.45,12.18&#10;&#9;&#9;&#9;&#9;&#9;&#9;&#9;&#9;&#9;c-0.89,1.47-1.92,2-2.17,3.71c-0.32,2.16,0.92,3.91,1.77,5.76c1.67,3.64,3.79,9.93-0.26,12.92&#10;&#9;&#9;&#9;&#9;&#9;&#9;&#9;&#9;&#9;c-2.46,1.82-4.94-0.6-4.94,2.94c0,2.22,0.23,3.87-1.49,5.6c-1.38,1.38-4.3,2.85-6.26,2.89c-0.17-2.04-0.2-4.11-0.28-6.16&#10;&#9;&#9;&#9;&#9;&#9;&#9;&#9;&#9;&#9;c-0.45,3.76-6.22,8.06-9.45,9.43c-2.65,1.13-5.41,1.02-8.13-0.04c-3.74-1.45-5.99-3.76-10.22-3.73&#10;&#9;&#9;&#9;&#9;&#9;&#9;&#9;&#9;&#9;c-4.74,0.03-8.03,3.37-12.43,4.7c-3.72,1.12-10.58,1.48-12.65-2.64c-0.69-1.36-0.35-2.52-1.81-3.34&#10;&#9;&#9;&#9;&#9;&#9;&#9;&#9;&#9;&#9;c-2.01-1.11-4.09-0.63-5.82-2.62c-1.44-1.67-2.32-4.98-1.6-7.14c0.46-1.39,3.17-2.4,3.29-3.53c0.16-1.37-1.87-1.9-2.8-2.34&#10;&#9;&#9;&#9;&#9;&#9;&#9;&#9;&#9;&#9;c-2.33-1.11-3.83-2.1-4.71-4.72c-0.61-1.81-0.93-4.4-0.21-6.19c0.61-1.53,2.04-2.45,2.3-4.16c0.46-3.02-3.53-3.86-4.91-6.39&#10;&#9;&#9;&#9;&#9;&#9;&#9;&#9;&#9;&#9;c-1.14-2.08-1.93-5.87-1.42-8.24c0.56-2.65,3.32-4.19,4.41-6.57c0.97-2.12,0.03-3.3-0.59-5.33&#10;&#9;&#9;&#9;&#9;&#9;&#9;&#9;&#9;&#9;c-1.16-3.78,0.2-6.93,0.43-10.65c0.17-2.81,0.87-6.23-0.62-8.8c-1.49-2.58-4.02-4.71-4.71-7.74&#10;&#9;&#9;&#9;&#9;&#9;&#9;&#9;&#9;&#9;c-0.99-4.33,1.32-8.71,3.27-12.42c5.62-10.7,15.96-19.51,27.84-22.01c4.26-0.89,8.79-1.06,13.1-0.45&#10;&#9;&#9;&#9;&#9;&#9;&#9;&#9;&#9;&#9;c5.64,0.79,12.31,5.64,16.18,9.67c2.43,2.52,3.84,5.81,5.15,9.01c2.49,6.09,1.96,11.53,2.21,17.92&#10;&#9;&#9;&#9;&#9;&#9;&#9;&#9;&#9;&#9;c0.16,4.03,2.21,5.93,5.28,8.13c3.17,2.28,6.78,6.36,5.36,10.66c-0.49,1.49-2.03,3.13-1.1,4.92&#10;&#9;&#9;&#9;&#9;&#9;&#9;&#9;&#9;&#9;c0.88,1.7,3.46,1.48,4.47,3.25C286.3,81.96,286.42,82.25,286.51,82.54z"/>
                </g>
              </g>
            </g>
            <g>
              <g>
                <path class="st48" d="M221.97,35.75c-2.56,4.89-4.56,11.96-4.14,17.5c0.34,4.53,1.54,8.95,1.76,13.5&#10;&#9;&#9;&#9;&#9;&#9;&#9;&#9;&#9;c0.27,5.4,2.43,12.2,7.87,14.89c2.85,1.45,8.65,2.54,9.59,2.68c0.98,0.15-0.08,9.18-0.27,8.23l-8.47,3.86&#10;&#9;&#9;&#9;&#9;&#9;&#9;&#9;&#9;c-3.43,22.12,8.38,20.53,11.96,21.92c9.29,3.59,30.45-16.95,19.52-25.81c0,0-11.43-0.44-12.28-1.95&#10;&#9;&#9;&#9;&#9;&#9;&#9;&#9;&#9;c-1-1.76-0.85-7.89,0.39-9.43c0.43-0.54,0.43-0.54,4.05-4.19c4.36-4.39,6.61-9.76,6.61-9.76c1.43-0.14,4.7-0.22,6.3-3.11&#10;&#9;&#9;&#9;&#9;&#9;&#9;&#9;&#9;c2.93-5.3,1.34-8.04-5-7.19c0.06-4.49,0.71-9.18-1.62-13.32c-2.39-4.26-6.07-7.73-9.92-10.76&#10;&#9;&#9;&#9;&#9;&#9;&#9;&#9;&#9;c-3.29-2.59-7.22-3.61-11.32-3.82C230.27,28.63,225.38,29.25,221.97,35.75z" style="fill: rgb(137, 94, 64);"/>
              </g>
            </g>
            <g>
              <g>
                <g>
                  <path d="M247.7,48.92c0,0-0.15-0.05-0.4-0.17c-0.25-0.11-0.58-0.37-0.98-0.5c-0.19-0.08-0.4-0.16-0.6-0.26&#10;&#9;&#9;&#9;&#9;&#9;&#9;&#9;&#9;&#9;c-0.21-0.1-0.47-0.14-0.69-0.25c-0.23-0.1-0.48-0.17-0.73-0.22c-0.25-0.06-0.49-0.17-0.75-0.19&#10;&#9;&#9;&#9;&#9;&#9;&#9;&#9;&#9;&#9;c-0.51-0.08-1.02-0.17-1.51-0.16c-0.25,0-0.5-0.05-0.72,0c-0.22,0.03-0.45,0.04-0.66,0.05c-0.22,0-0.4,0.07-0.58,0.1&#10;&#9;&#9;&#9;&#9;&#9;&#9;&#9;&#9;&#9;c-0.18,0.03-0.34,0.06-0.46,0.09c-0.27,0.04-0.44,0.06-0.44,0.06s0.08-0.12,0.27-0.34c0.09-0.1,0.21-0.23,0.35-0.37&#10;&#9;&#9;&#9;&#9;&#9;&#9;&#9;&#9;&#9;c0.15-0.12,0.3-0.32,0.53-0.41c0.43-0.21,0.95-0.55,1.58-0.6c0.31-0.03,0.64-0.15,0.97-0.1c0.32,0.03,0.66,0.06,0.99,0.1&#10;&#9;&#9;&#9;&#9;&#9;&#9;&#9;&#9;&#9;c0.32,0.06,0.63,0.2,0.95,0.3c0.32,0.08,0.59,0.26,0.85,0.42c0.53,0.3,0.97,0.72,1.28,1.1c0.35,0.35,0.45,0.73,0.6,0.96&#10;&#9;&#9;&#9;&#9;&#9;&#9;&#9;&#9;&#9;C247.65,48.77,247.7,48.92,247.7,48.92z"/>
                </g>
              </g>
              <g>
                <g>
                  <path d="M227.55,49.92c0,0-0.17,0.02-0.46,0.01c-0.28,0.02-0.7-0.05-1.15-0.03c-0.22,0.01-0.46,0.03-0.7,0.02&#10;&#9;&#9;&#9;&#9;&#9;&#9;&#9;&#9;&#9;c-0.23-0.02-0.5,0.05-0.76,0.07c-0.26,0.04-0.53,0.02-0.78,0.1c-0.26,0.06-0.52,0.11-0.79,0.17l-0.72,0.29&#10;&#9;&#9;&#9;&#9;&#9;&#9;&#9;&#9;&#9;c-0.25,0.07-0.44,0.23-0.65,0.35c-0.2,0.14-0.45,0.23-0.59,0.42c-0.16,0.16-0.33,0.31-0.5,0.46&#10;&#9;&#9;&#9;&#9;&#9;&#9;&#9;&#9;&#9;c-0.19,0.13-0.26,0.32-0.39,0.46c-0.12,0.15-0.22,0.28-0.3,0.38c-0.19,0.22-0.31,0.35-0.31,0.35s-0.01-0.16,0-0.45&#10;&#9;&#9;&#9;&#9;&#9;&#9;&#9;&#9;&#9;c0.01-0.14,0.01-0.33,0.04-0.53c0.04-0.2,0.02-0.47,0.15-0.69c0.11-0.23,0.23-0.49,0.38-0.76c0.13-0.29,0.37-0.51,0.62-0.74&#10;&#9;&#9;&#9;&#9;&#9;&#9;&#9;&#9;&#9;c0.26-0.22,0.49-0.52,0.83-0.63c0.33-0.15,0.65-0.32,0.99-0.45c0.35-0.06,0.69-0.12,1.04-0.17&#10;&#9;&#9;&#9;&#9;&#9;&#9;&#9;&#9;&#9;c0.34-0.08,0.68,0.02,0.99,0.03c0.65,0.02,1.23,0.27,1.7,0.45c0.46,0.18,0.76,0.45,1,0.62&#10;&#9;&#9;&#9;&#9;&#9;&#9;&#9;&#9;&#9;C227.42,49.8,227.55,49.92,227.55,49.92z"/>
                </g>
              </g>
              <g>
                <path class="st26" d="M231.54,73.12c0,0,0.06,0.18,0.22,0.5c0.08,0.17,0.18,0.36,0.35,0.55c0.16,0.2,0.34,0.43,0.6,0.62&#10;&#9;&#9;&#9;&#9;&#9;&#9;&#9;&#9;c0.48,0.44,1.19,0.75,1.98,0.94c0.39,0.06,0.8,0.15,1.23,0.11c0.42,0.01,0.84-0.07,1.26-0.12c0.41-0.11,0.81-0.21,1.2-0.37&#10;&#9;&#9;&#9;&#9;&#9;&#9;&#9;&#9;c0.39-0.12,0.73-0.35,1.07-0.51c0.66-0.4,1.24-0.84,1.64-1.3c0.43-0.43,0.72-0.9,0.88-1.18c0.16-0.31,0.23-0.5,0.23-0.5&#10;&#9;&#9;&#9;&#9;&#9;&#9;&#9;&#9;L231.54,73.12z" style="fill: rgb(255, 255, 255);"/>
              </g>
              <g>
                <path class="st49" d="M234.56,68.19c-0.5,0.28-1.06,0.46-1.64,0.56c-0.58,0.09-1.2,0.12-1.84-0.12&#10;&#9;&#9;&#9;&#9;&#9;&#9;&#9;&#9;c-0.31-0.12-0.64-0.33-0.84-0.66c-0.08-0.12-0.08-0.14-0.13-0.21c-0.04-0.08-0.08-0.18-0.11-0.28&#10;&#9;&#9;&#9;&#9;&#9;&#9;&#9;&#9;c-0.05-0.18-0.09-0.37-0.09-0.56c0.01-0.77,0.45-1.38,0.94-1.81c1.02-0.66,1.35-1.27,1.29-2.47c0.05-1.16,0.2-2.26,0.34-3.4&#10;&#9;&#9;&#9;&#9;&#9;&#9;&#9;&#9;c0.28,1.11,0.35,2.27,0.45,3.37c0.07,0.51,0.13,1.25-0.17,1.88c-0.14,0.31-0.35,0.59-0.58,0.82&#10;&#9;&#9;&#9;&#9;&#9;&#9;&#9;&#9;c-0.22,0.24-0.54,0.44-0.68,0.56c-0.36,0.29-0.62,0.7-0.64,1.07c-0.01,0.09,0,0.19,0.02,0.28l0.03,0.12&#10;&#9;&#9;&#9;&#9;&#9;&#9;&#9;&#9;c0.02,0.05,0.07,0.16,0.07,0.16c0.08,0.17,0.23,0.3,0.43,0.42C232.25,68.35,233.45,68.32,234.56,68.19z" style="fill: rgb(107, 66, 59);"/>
              </g>
              <g>
                <g>
                  <path class="st23" d="M228.52,60.77c0.11,1.25-0.48,2.35-1.32,2.46c-0.84,0.11-1.62-0.83-1.73-2.09&#10;&#9;&#9;&#9;&#9;&#9;&#9;&#9;&#9;&#9;c-0.11-1.26,0.49-2.36,1.33-2.47C227.64,58.58,228.41,59.52,228.52,60.77z" style="fill: rgb(20, 18, 16);"/>
                </g>
              </g>
              <g>
                <g>
                  <path class="st23" d="M245.87,58.56c0.11,1.26-0.48,2.36-1.32,2.47c-0.85,0.11-1.62-0.83-1.73-2.09&#10;&#9;&#9;&#9;&#9;&#9;&#9;&#9;&#9;&#9;c-0.11-1.26,0.48-2.36,1.32-2.48C244.99,56.38,245.76,57.31,245.87,58.56z" style="fill: rgb(20, 18, 16);"/>
                </g>
              </g>
            </g>
            <g>
              <path d="M243.51,32.93c1.22,7.23-8.08,13.54-14.85,14.74c1.72-2.35,2.99-4.68,3.78-7.44c-1.62,4.62-6.03,8-10.56,8.64&#10;&#9;&#9;&#9;&#9;&#9;&#9;&#9;c0.4-1.38,0.32-3.2,1.63-4.62c-2.89,6.95-5.88,11.63-6.01,19.37c-11.56-14.99-1.14-37.73,16.56-38.94&#10;&#9;&#9;&#9;&#9;&#9;&#9;&#9;c11.34-0.94,19.9,0.81,26.25,11.01c4.87,7.53,4.59,17.56-3.35,24.43c0.26-4.56,0.92-10.51-1.09-14.98&#10;&#9;&#9;&#9;&#9;&#9;&#9;&#9;C253.81,39.78,247.34,37.32,243.51,32.93L243.51,32.93z"/>
            </g>
            <g>
              <g>
                <path class="st50" d="M264.59,62.15c0.65,0.01,1.29,0.01,1.94,0.02c0.09,0,0.19,0,0.28,0c0.26,0,0.51-0.23,0.5-0.5&#10;&#9;&#9;&#9;&#9;&#9;&#9;&#9;&#9;c-0.01-0.27-0.22-0.5-0.5-0.5c-0.65-0.01-1.29-0.01-1.94-0.02c-0.09,0-0.19,0-0.28,0c-0.26,0-0.51,0.23-0.5,0.5&#10;&#9;&#9;&#9;&#9;&#9;&#9;&#9;&#9;C264.1,61.92,264.31,62.14,264.59,62.15L264.59,62.15z" style="fill: rgb(188, 184, 175);"/>
              </g>
            </g>
          </g>
          <g>
            <g>
              <path class="st48" d="M213.55,124.01c0.36,14.56-0.02,29.71-2.5,43.96c-3.34,18.06-5.5,37.6-0.89,55.66&#10;&#9;&#9;&#9;&#9;&#9;&#9;&#9;c0.43,2.07,1.25,4.51,3.88,3.69c2.26-0.62,2.19-3.27,2.52-5.36c1-5.51,1.62-11.02,2.43-16.52c1.62-11.2,3.23-22.41,4.08-33.78&#10;&#9;&#9;&#9;&#9;&#9;&#9;&#9;c0.55-8.15,0.73-16.48,0.53-24.61c-0.1-4.16-0.21-8.32-0.31-12.48c-0.03-1.32,0.2-7.2-0.38-7.56L213.55,124.01z" style="fill: rgb(137, 94, 64);"/>
            </g>
            <g>
              <path class="st51" d="M227.44,96.42c-4.13,1.05-9.37,3.64-11.15,8.03c-0.71,1.91-0.66,3.8-1.19,5.52&#10;&#9;&#9;&#9;&#9;&#9;&#9;&#9;c-0.52,1.91-2,3.08-2.53,4.98c-0.52,1.91-0.47,3.8-1.37,5.9c-0.71,1.91-1.99,3.64-2.7,5.74c5.67-0.14,11.95,1.22,17.06,1.09&#10;&#9;&#9;&#9;&#9;&#9;&#9;&#9;L227.44,96.42z" style="fill: rgb(112, 106, 153);"/>
            </g>
          </g>
          <g>
            <g>
              <g>
                <path class="st48" d="M199.35,370.25c5.99-0.15,16.03-0.83,20.43-1.15c-0.09-2.16-0.17-4.32-0.22-6.44&#10;&#9;&#9;&#9;&#9;&#9;&#9;&#9;&#9;c-0.18-7.21,0.06-14.3-0.04-21.51c-0.11-8.34,0.39-14.19,0.35-21.27c-4.6-0.13-9.2,0.23-13.78,0.84&#10;&#9;&#9;&#9;&#9;&#9;&#9;&#9;&#9;c0,0.12,0.01,0.37,0.02,0.62c-0.34,1.13,0.34,3.72,0.5,4.96c0.17,1.86,0.21,3.73,0.39,5.59c0.34,3.47,0.67,7.07,0.76,10.68&#10;&#9;&#9;&#9;&#9;&#9;&#9;&#9;&#9;c0.16,6.59,1.71,14.01-4.01,18.75c-1.54,1.27-3.19,2.1-4.91,2.7C199.41,366.04,199.33,369.41,199.35,370.25z" style="fill: rgb(137, 94, 64);"/>
              </g>
              <g>
                <path class="st52" d="M199.35,370.25c-0.02-0.84,0.06-4.21-0.52-6.24c-4,1.39-8.39,1.51-12.62,2.83&#10;&#9;&#9;&#9;&#9;&#9;&#9;&#9;&#9;c-4.44,1.48-8.08,4.92-7.59,10.01l41.38-1.03c-0.05-2.22-0.14-4.47-0.23-6.73C215.38,369.42,205.34,370.1,199.35,370.25z" style="fill: rgb(79, 77, 119);"/>
              </g>
            </g>
            <g>
              <g>
                <path class="st48" d="M270.87,379.17c0,0,2.25,0.08,4.61-0.22c-0.12-6.52-0.87-13.12-1.04-19.73&#10;&#9;&#9;&#9;&#9;&#9;&#9;&#9;&#9;c-0.22-8.89,0.12-17.98-0.66-26.85c-1.7,0.04-7.6-1.14-8.7,0.02c-1.11,0.97-0.17,8.52-0.31,10.23&#10;&#9;&#9;&#9;&#9;&#9;&#9;&#9;&#9;c-0.53,9.09,0.31,20.43-5.93,27.96c-0.94,1.11-2.09,2.02-3.31,2.85C261.89,372.78,270.6,372.57,270.87,379.17z" style="fill: rgb(137, 94, 64);"/>
              </g>
              <g>
                <path class="st52" d="M270.87,379.17c-0.27-6.6-8.98-6.39-15.35-5.74c-4.74,3.22-10.59,5.15-9.97,12.05&#10;&#9;&#9;&#9;&#9;&#9;&#9;&#9;&#9;c0,0,19.69,1.21,29.88-1.5c0.07-1.67,0.07-3.35,0.04-5.04C273.12,379.25,270.87,379.17,270.87,379.17z" style="fill: rgb(79, 77, 119);"/>
              </g>
            </g>
            <g>
              <g>
                <path class="st53" d="M218.64,184.34c-7.24,17.21-17.9,79.63-17.6,91.55c0.15,5.96,1.13,11.33,1.56,16.99&#10;&#9;&#9;&#9;&#9;&#9;&#9;&#9;&#9;c0.06,2.55,0.98,5.37,0.47,7.65c-0.25,1.42-1.07,2.58-1.32,4.01c-0.23,2.28,0.63,2.54,0.96,4.52&#10;&#9;&#9;&#9;&#9;&#9;&#9;&#9;&#9;c0.64,2.82-1.01,5.13-0.94,7.97c0.08,3.12,0.43,5.95,0.22,8.79c5.41,0.72,16.06,0.88,21.43-0.1c0,0,0.65-2.14-0.29-5.81&#10;&#9;&#9;&#9;&#9;&#9;&#9;&#9;&#9;c-0.67-3.96-1.54-5.07-1.08-9.06c0.72-5.41-0.02-12.2-0.16-17.88c-0.08-3.12-1-6.22-0.8-9.35c0.2-3.13,1.01-5.13,1.21-8.26&#10;&#9;&#9;&#9;&#9;&#9;&#9;&#9;&#9;c0.45-4.84,22.13-57.6,22.13-57.6c3.23,4.46,13.88,67.49,15.17,73.7c0.67,3.96,1.61,7.63,1.43,11.89&#10;&#9;&#9;&#9;&#9;&#9;&#9;&#9;&#9;c-0.24,1.71-0.76,3.71-0.72,5.41c0.05,1.98,1.23,3.66,1.28,5.64c0.37,3.68-0.68,7.11-0.59,10.8&#10;&#9;&#9;&#9;&#9;&#9;&#9;&#9;&#9;c0.07,2.84,0.73,6.51-0.63,8.81c4.14,1.46,15.69,3.3,19.01-2.44c0,0,0.09-40.04-1.14-43.7c-1.22-3.38-2.71-6.18-2.23-9.88&#10;&#9;&#9;&#9;&#9;&#9;&#9;&#9;&#9;c0.75-3.99,3.22-41.8,3-50.6c-0.31-12.48,3.02-27.04-4.35-38.21c-6.48-9.49-13.71-14.7-24.57-17.84&#10;&#9;&#9;&#9;&#9;&#9;&#9;&#9;&#9;c-7.43-2.09-15.97-3.01-22.37,2.26L218.64,184.34z" style="fill: rgb(160, 207, 234);"/>
              </g>
              <g>
                <g>
                  <path class="st54" d="M215.96,198.31c1.06-0.02,2.09-0.07,3.07-0.25c0.97-0.19,1.91-0.5,2.68-1.05&#10;&#9;&#9;&#9;&#9;&#9;&#9;&#9;&#9;&#9;c0.78-0.53,1.37-1.28,1.75-2.17c0.38-0.9,0.54-1.91,0.66-2.97c0.3,1.02,0.37,2.13,0.08,3.22c-0.27,1.09-0.98,2.09-1.93,2.75&#10;&#9;&#9;&#9;&#9;&#9;&#9;&#9;&#9;&#9;c-0.95,0.65-2.07,0.95-3.16,1C218.03,198.88,216.95,198.7,215.96,198.31z" style="fill: rgb(102, 153, 204);"/>
                </g>
                <g>
                  <path class="st54" d="M264.48,193.89c0.14,1.31,0.55,2.53,1.22,3.56c0.67,1.03,1.58,1.88,2.65,2.49&#10;&#9;&#9;&#9;&#9;&#9;&#9;&#9;&#9;&#9;c1.05,0.63,2.24,1.03,3.47,1.24c1.23,0.2,2.52,0.22,3.81,0c-2.37,1.19-5.42,1-7.79-0.38c-1.18-0.7-2.21-1.72-2.82-2.96&#10;&#9;&#9;&#9;&#9;&#9;&#9;&#9;&#9;&#9;C264.4,196.61,264.24,195.18,264.48,193.89z" style="fill: rgb(102, 153, 204);"/>
                </g>
                <g>
                  <path class="st54" d="M247.51,192.42c-1.14,1.87-1.75,4-2.18,6.12c-0.42,2.13-0.69,4.29-0.81,6.46&#10;&#9;&#9;&#9;&#9;&#9;&#9;&#9;&#9;&#9;c-0.13,2.17-0.14,4.35-0.08,6.51c0.09,2.16,0.23,4.36,0.75,6.39l0.21,0.82l-0.79-0.23c-0.86-0.25-1.51-0.65-2.21-1.04&#10;&#9;&#9;&#9;&#9;&#9;&#9;&#9;&#9;&#9;c-0.68-0.4-1.33-0.81-1.98-1.25c-1.28-0.87-2.53-1.78-3.77-2.72l-0.18-0.14l0-0.22c-0.02-2.13,0.04-4.23,0.16-6.34&#10;&#9;&#9;&#9;&#9;&#9;&#9;&#9;&#9;&#9;c0.11-2.11,0.34-4.21,0.64-6.3c0.32-2.09,0.69-4.18,1.3-6.21c0.62-2.01,1.38-4.05,2.73-5.68c-1.2,1.74-1.84,3.77-2.33,5.79&#10;&#9;&#9;&#9;&#9;&#9;&#9;&#9;&#9;&#9;c-0.47,2.04-0.81,4.1-1.03,6.18c-0.23,2.08-0.34,4.17-0.45,6.26c-0.09,2.09-0.13,4.19-0.08,6.27l-0.19-0.36&#10;&#9;&#9;&#9;&#9;&#9;&#9;&#9;&#9;&#9;c1.23,0.91,2.48,1.8,3.75,2.64c0.64,0.42,1.27,0.84,1.92,1.23c0.64,0.38,1.33,0.77,1.95,0.96l-0.58,0.59&#10;&#9;&#9;&#9;&#9;&#9;&#9;&#9;&#9;&#9;c-0.54-2.22-0.64-4.41-0.71-6.62c-0.06-2.2,0.05-4.4,0.26-6.59c0.22-2.19,0.53-4.37,1.09-6.5&#10;&#9;&#9;&#9;&#9;&#9;&#9;&#9;&#9;&#9;C245.49,196.33,246.2,194.19,247.51,192.42z" style="fill: rgb(102, 153, 204);"/>
                </g>
              </g>
            </g>
          </g>
          <g>
            <path class="st55" d="M258.35,91.3c1.71,0.34,3.62,1.05,5.34,1.57c3.81,1.04,7.21,0.58,10.13,4.29&#10;&#9;&#9;&#9;&#9;&#9;&#9;c6.06,7.8,1.01,17.76-2.97,25.05c-2.35,4.6-4.89,9.01-7.43,13.43c-1.99,3.64-3.8,7.1-3.7,11.26c0.1,3.97,1.51,7.34,3.29,10.7&#10;&#9;&#9;&#9;&#9;&#9;&#9;c2.38,4.1,15.45,31.33,17.08,40.26c-8.89,0.22-17.97,0.26-26.88-0.66c-8.35-0.74-16.73-3.18-24.73-5.25&#10;&#9;&#9;&#9;&#9;&#9;&#9;c-3.43-0.86-9.59-1.87-13.32-3.74c0,0,0.26-3.69,0.4-5.78c-0.03-1.13-0.05-1.89,0.31-2.85c0.35-0.96,1.85-1.56,2.01-2.7&#10;&#9;&#9;&#9;&#9;&#9;&#9;c0.14-1.9-1.61-4.12-1.66-6.01c-0.07-2.65,1.98-4.02,2.3-6.49c0.85-3.99,0.55-8.34,0.83-12.32c0.29-3.79,1.12-8.16,0.65-11.94&#10;&#9;&#9;&#9;&#9;&#9;&#9;c-0.25-2.26-1.97-3.17-3.53-5.21c-0.99-1.68-1.41-3.56-1.66-5.64c-0.49-4.34,1.7-7.61,3.31-11.44&#10;&#9;&#9;&#9;&#9;&#9;&#9;c1.6-4.2,6.18-17.21,6.29-20.43c1.95-0.69,3-1.56,4.5-2.16l6.97,21.78L258.35,91.3z" style="fill: rgb(145, 135, 189);"/>
          </g>
          <g>
            <g>
              <g>
                <g>
                  <g>
                    <path class="st48" d="M302.95,133.95c-1.54-0.57-3.88-0.41-5.5-0.27c-1.73,0.15-4.45,1.33-5.74,2.48&#10;&#9;&#9;&#9;&#9;&#9;&#9;&#9;&#9;&#9;&#9;c-0.02,0.02-0.03,0.04-0.04,0.05c-0.98,3.4-10.02,23.48-14.73,30.13c-2.22,2.01-4.4,2.83-6.9,2.24&#10;&#9;&#9;&#9;&#9;&#9;&#9;&#9;&#9;&#9;&#9;c-4.7-1.1-9.54-4.68-14.06-5.11c-2.13-0.23-11.31-1.05-12.17,2.03c-0.82,2.88,11.05,1.07,12.93,1.46&#10;&#9;&#9;&#9;&#9;&#9;&#9;&#9;&#9;&#9;&#9;c-2.73,1.61-6.24,2.97-8.63,5.09c-1.55,1.2-4.59,5.35-0.03,4.34c-0.48,2.29,1.02,3.47,3.24,2.2&#10;&#9;&#9;&#9;&#9;&#9;&#9;&#9;&#9;&#9;&#9;c-1.35,6.46,12.38-3.08,14.26-2.69c1.25,0.26,2.2,1.98,3.61,2.49c2.04,0.64,3.72-0.1,5.44-1.04&#10;&#9;&#9;&#9;&#9;&#9;&#9;&#9;&#9;&#9;&#9;c7.04-3.87,11.49-11.22,15.66-17.77c3.82-6,7.65-11.99,11.44-18.01c1.04-1.66,2.09-3.32,3.11-5&#10;&#9;&#9;&#9;&#9;&#9;&#9;&#9;&#9;&#9;&#9;c0.11-0.18,0.17-0.48,0.19-0.86C304.61,134.94,303.98,134.3,302.95,133.95z" style="fill: rgb(137, 94, 64);"/>
                  </g>
                </g>
                <g>
                  <g>
                    <path class="st56" d="M251.18,179.76c-0.11-0.92,0.41-1.83,1.07-2.47c0.66-0.66,1.45-1.15,2.25-1.58&#10;&#9;&#9;&#9;&#9;&#9;&#9;&#9;&#9;&#9;&#9;c0.82-0.41,1.59-0.81,2.45-1.16c0.84-0.35,1.7-0.63,2.57-0.88l0.02-0.01l0,0c0.45-0.09,0.9-0.25,1.37-0.35&#10;&#9;&#9;&#9;&#9;&#9;&#9;&#9;&#9;&#9;&#9;c0.46-0.1,0.95-0.2,1.42-0.15c-0.94,0.13-1.75,0.61-2.68,0.9l0.01,0l-2.48,1.02c-0.79,0.35-1.62,0.76-2.42,1.14&#10;&#9;&#9;&#9;&#9;&#9;&#9;&#9;&#9;&#9;&#9;c-0.79,0.39-1.57,0.81-2.25,1.35C251.85,178.13,251.27,178.84,251.18,179.76z" style="fill: rgb(102, 70, 48);"/>
                  </g>
                  <g>
                    <path class="st56" d="M248.12,178.1c-0.33-0.6-0.17-1.37,0.16-1.96c0.34-0.6,0.8-1.1,1.29-1.57c1-0.91,2.13-1.64,3.31-2.28&#10;&#9;&#9;&#9;&#9;&#9;&#9;&#9;&#9;&#9;&#9;c1.19-0.6,2.39-1.16,3.59-1.7c1.19-0.53,2.46-1.13,3.81-1.1c-0.66,0.1-1.27,0.33-1.86,0.61c-0.6,0.27-1.17,0.58-1.75,0.9&#10;&#9;&#9;&#9;&#9;&#9;&#9;&#9;&#9;&#9;&#9;c-1.16,0.63-2.37,1.19-3.51,1.82c-1.17,0.57-2.27,1.3-3.29,2.09c-0.5,0.4-0.98,0.85-1.34,1.37&#10;&#9;&#9;&#9;&#9;&#9;&#9;&#9;&#9;&#9;&#9;C248.15,176.8,247.93,177.45,248.12,178.1z" style="fill: rgb(102, 70, 48);"/>
                  </g>
                </g>
              </g>
              <g>
                <path class="st48" d="M276.81,121.98c0.32,0.81,1.25,1.39,1.78,2.09c1.05,1.19,1.99,2.39,3.14,3.58&#10;&#9;&#9;&#9;&#9;&#9;&#9;&#9;&#9;c1.89,2.19,4.17,4.17,6.36,6.15c0.94,0.79,1.97,1.48,2.91,2.37c0.83,0.79,1.99,2.09,3.12,2.57c1.75,0.67,4.83,0.55,6.65,0.1&#10;&#9;&#9;&#9;&#9;&#9;&#9;&#9;&#9;c1.21-0.34,5.17-1.62,4.3-3.63c-0.43-0.9-2.36-2.48-3.19-3.27c-1.04-1.09-2.09-2.08-3.13-3.18&#10;&#9;&#9;&#9;&#9;&#9;&#9;&#9;&#9;c-3.57-4.39-7.54-8.67-11.31-12.95c-0.63-0.7-1.26-1.39-1.78-2.09L276.81,121.98z" style="fill: rgb(137, 94, 64);"/>
              </g>
            </g>
            <g>
              <path class="st57" d="M274.98,127.45c-1.2-1.42-2.97-2.83-3.74-4.69c-0.92-2.01-0.82-3.61-2.02-5.46&#10;&#9;&#9;&#9;&#9;&#9;&#9;&#9;c-1.35-1.71-2.12-3.43-2.46-5.59c-0.67-3.75-4.07-6.28-5.04-10.17c-0.97-4.04,1.45-5.98,5.04-7.09&#10;&#9;&#9;&#9;&#9;&#9;&#9;&#9;c5.62-1.59,10.11,3.96,12.96,7.8c0.9,1.14,2.08,2.12,2.98,3.26c0.9,1.14,1.08,2.58,2.26,3.28c0.59,0.28,1.46,0.11,1.89,0.39&#10;&#9;&#9;&#9;&#9;&#9;&#9;&#9;c0.74,0.56,0.76,1.14,1.21,1.86c0.75,1,1.64,1.7,2.67,2.54L274.98,127.45z" style="fill: rgb(166, 161, 211);"/>
            </g>
          </g>
        </g>
      </g>
    </g>
  </g>
</svg>