<?xml version="1.0" encoding="utf-8"?>
<svg viewBox="155.399 203.2091 254.0035 254.0035" xmlns="http://www.w3.org/2000/svg">
  <defs>
    <linearGradient id="Gradient_15" gradientUnits="userSpaceOnUse" x1="0" y1="-40" x2="0" y2="40" spreadMethod="pad">
      <stop offset="0" stop-color="#71CF93"/>
      <stop offset="1" stop-color="#59B15C"/>
    </linearGradient>
    <linearGradient id="Gradient_16" gradientUnits="userSpaceOnUse" x1="-0.25" y1="-40.25" x2="-0.25" y2="3.25" spreadMethod="pad">
      <stop offset="0" stop-color="#85DFAF"/>
      <stop offset="1" stop-color="#69C581"/>
    </linearGradient>
  </defs>
  <g id="green_body_square" transform="matrix(3.1750440597534184, 0, 0, 3.1750440597534184, 282.4007610440367, 330.2109119029478)" style="">
    <g transform="matrix( 1, 0, 0, 1, 0,0) ">
      <g>
        <path fill="url(#Gradient_15)" stroke="none" d="&#10;M 40 -26&#10;Q 39.75 -36 29.45 -36&#10;L -29.5 -36&#10;Q -39.75 -36 -40 -26&#10;L -40 29.95&#10;Q -39.75 40 -29.5 40&#10;L 29.45 40&#10;Q 39.75 40 40 29.95&#10;L 40 -26 Z" style="fill-rule: evenodd;"/>
        <path fill="url(#Gradient_16)" stroke="none" d="&#10;M 40 -29.5&#10;Q 40 -40 29.45 -40&#10;L -29.5 -40&#10;Q -40 -40 -40 -29.5&#10;L -40 -26&#10;Q -39.75 -36 -29.5 -36&#10;L 29.45 -36&#10;Q 39.75 -36 40 -26&#10;L 40 -29.5 Z" style="fill-rule: evenodd;"/>
      </g>
    </g>
  </g>
  <g id="face_h" transform="matrix(3.1750440597534184, 0, 0, 3.1750440597534184, 280.07761037465343, 329.8158923658116)" style="">
    <g transform="matrix( 1, 0, 0, 1, 0,0) ">
      <g>
        <path fill="#FFFFFF" stroke="none" d="&#10;M -4.95 -0.6&#10;L -24.95 -0.6&#10;Q -24.95 3.55 -22 6.45 -19.1 9.4 -14.95 9.4 -10.8 9.4 -7.9 6.45 -4.95 3.55 -4.95 -0.6 Z" style=""/>
      </g>
    </g>
    <g transform="matrix( 1, 0, 0, 1, 0,0) ">
      <g>
        <path fill="#3D465D" stroke="none" d="&#10;M -8.95 -0.6&#10;L -20.95 -0.6&#10;Q -20.95 1.9 -19.15 3.65 -17.4 5.4 -14.95 5.4 -12.45 5.4 -10.7 3.65 -8.95 1.9 -8.95 -0.6 Z" style=""/>
      </g>
    </g>
    <g transform="matrix( 1, 0, 0, 1, 0,0) ">
      <g>
        <path fill="#FFFFFF" stroke="none" d="&#10;M 25.05 -0.6&#10;L 5.05 -0.6&#10;Q 5.05 3.55 8 6.45 10.9 9.4 15.05 9.4 19.2 9.4 22.1 6.45 25.05 3.55 25.05 -0.6 Z" style=""/>
      </g>
    </g>
    <g transform="matrix( 1, 0, 0, 1, 0,0) ">
      <g>
        <path fill="#3D465D" stroke="none" d="&#10;M 21.05 -0.6&#10;L 9.05 -0.6&#10;Q 9.05 1.9 10.85 3.65 12.6 5.4 15.05 5.4 17.55 5.4 19.3 3.65 21.05 1.9 21.05 -0.6 Z" style=""/>
      </g>
    </g>
    <g transform="matrix( 1, 0, 0, 1, 0,0) ">
      <g>
        <path fill="#3D465D" stroke="none" d="&#10;M -25.15 -4.8&#10;Q -24.4 -4.4 -23.6 -4.6&#10;L -4.3 -9.8&#10;Q -3.45 -10 -3.1 -10.7 -2.65 -11.4 -2.85 -12.25&#10;L -3.9 -16.1&#10;Q -4.1 -16.95 -4.85 -17.3 -5.5 -17.75 -6.35 -17.55&#10;L -25.65 -12.35&#10;Q -26.45 -12.15 -26.9 -11.4 -27.3 -10.75 -27.1 -9.9&#10;L -26.05 -6.05&#10;Q -25.85 -5.2 -25.15 -4.8 Z" style=""/>
      </g>
    </g>
    <g transform="matrix( 1, 0, 0, 1, 0,0) ">
      <g>
        <path fill="#3D465D" stroke="none" d="&#10;M 3.15 -6.75&#10;Q 3.55 -6 4.35 -5.75&#10;L 23.65 -0.6&#10;Q 24.5 -0.4 25.2 -0.8 25.9 -1.2 26.1 -2.05&#10;L 27.15 -5.9&#10;Q 27.35 -6.75 26.95 -7.4 26.55 -8.15 25.7 -8.35&#10;L 6.4 -13.5&#10;Q 5.6 -13.75 4.9 -13.35 4.15 -12.95 3.95 -12.1&#10;L 2.9 -8.25&#10;Q 2.7 -7.4 3.15 -6.75 Z" style=""/>
      </g>
    </g>
    <g transform="matrix( 1, 0, 0, 1, 0,0) ">
      <g>
        <path fill="#37393F" stroke="none" d="&#10;M 9.95 10.8&#10;Q 9.25 10.35 8.4 10.6 7.6 10.8 7.15 11.45 6.75 12 6 12.5 4.15 13.65 1.65 13.65 0.5 13.65 -0.5 13.45 -1.35 13.3 -2.05 13.75 -2.75 14.1 -2.95 14.95 -3.15 15.7 -2.65 16.4 -2.25 17 -1.35 17.2 0 17.5 1.65 17.5 5.5 17.5 8.3 15.7&#10;L 8.25 15.75&#10;Q 9.95 14.7 10.75 13.4 11.15 12.7 10.95 11.95 10.7 11.15 9.95 10.8 Z" style=""/>
      </g>
    </g>
  </g>
</svg>