<?xml version="1.0"?>
<svg width="150" height="150" xmlns="http://www.w3.org/2000/svg" xmlns:svg="http://www.w3.org/2000/svg" xmlns:xlink="http://www.w3.org/1999/xlink">
 <!-- Created with SVG-edit - https://github.com/SVG-Edit/svgedit-->
 <defs>
  <symbol id="svg_2" viewBox="0 0 512 512" xmlns="http://www.w3.org/2000/svg" xmlns:xlink="http://www.w3.org/1999/xlink">
   <path d="m33.96,421.59c-14.55,0 -26.36,-11.8 -26.36,-26.36l0,-312.26c0,-14.55 11.81,-26.36 26.36,-26.36l444.08,0c14.55,0 26.36,11.81 26.36,26.36l0,312.26c0,14.56 -11.81,26.36 -26.36,26.36l-444.08,0l0,0z" fill="#FFF6DD" id="svg_1"/>
   <rect fill="#80D3CF" height="263.59" id="svg_4" width="313.28" x="58.3" y="107.31"/>
   <circle cx="437.99" cy="127.58" fill="#FF6A5E" id="svg_5" r="20.28"/>
   <circle cx="437.99" cy="198.56" fill="#80D3CF" id="svg_6" r="20.28"/>
   <g id="svg_7">
    <rect fill="#FFFFFF" height="268.01" id="svg_8" transform="matrix(-0.7072 -0.707 0.707 -0.7072 159.7643 517.1724)" width="15.21" x="179.37" y="91.5"/>
    <rect fill="#FFFFFF" height="65.03" id="svg_9" transform="matrix(-0.7072 -0.707 0.707 -0.7072 249.3649 556.3882)" width="15.21" x="232.29" y="194.04"/>
    <rect fill="#FFFFFF" height="122.55" id="svg_10" transform="matrix(-0.7072 -0.707 0.707 -0.7072 62.1337 633.9779)" width="15.21" x="154.74" y="242.85"/>
    <rect fill="#FFFFFF" height="173.81" id="svg_11" transform="matrix(-0.7072 -0.707 0.707 -0.7072 269.2933 683.5067)" width="15.21" x="268.57" y="199.09"/>
    <rect fill="#FFFFFF" height="118.5" id="svg_12" transform="matrix(-0.7072 -0.707 0.707 -0.7072 99.8319 406.6064)" width="15.21" x="126.51" y="123.38"/>
   </g>
   <g id="svg_13">
    <rect fill="#F59D40" height="33.79" id="svg_14" width="54.07" x="58.3" y="421.6"/>
    <rect fill="#F59D40" height="33.79" id="svg_15" width="54.07" x="399.63" y="421.6"/>
   </g>
   <g id="svg_16">
    <path d="m478.04,49.01l-444.08,0c-18.72,0 -33.96,15.24 -33.96,33.96l0,312.26c0,18.73 15.24,33.96 33.96,33.96l16.73,0l0,33.8l69.28,0l0,-33.8l34.29,0l0,-15.2l-34.29,0l-69.28,0l-16.73,0c-10.34,0 -18.75,-8.42 -18.75,-18.76l0,-312.26c0,-10.34 8.41,-18.75 18.75,-18.75l444.08,0c10.34,0 18.75,8.41 18.75,18.75l0,312.26c0,10.34 -8.41,18.76 -18.75,18.76l-16.73,0l-69.28,0l-217.5,0l0,15.2l217.5,0l0,33.8l69.28,0l0,-33.8l16.73,0c18.72,0 33.96,-15.23 33.96,-33.96l0,-312.26c0,-18.72 -15.24,-33.96 -33.96,-33.96zm-373.27,380.18l0,18.59l-38.87,0l0,-18.59l38.87,0l0,0zm341.33,18.59l-38.87,0l0,-18.58l38.87,0l0,18.58z" fill="#311363" id="svg_17"/>
    <polygon fill="#311363" id="svg_18" points="379.184,154.952 379.184,99.703 50.693,99.703 50.693,378.502 379.184,378.502    379.184,175.229 363.976,175.229 363.976,363.294 65.901,363.294 65.901,114.911 363.976,114.911 363.976,154.952  "/>
    <path d="m437.99,155.46c15.37,0 27.88,-12.5 27.88,-27.88s-12.51,-27.88 -27.88,-27.88s-27.88,12.51 -27.88,27.88s12.51,27.88 27.88,27.88zm0,-40.55c6.99,0 12.67,5.69 12.67,12.67s-5.68,12.67 -12.67,12.67c-6.99,0 -12.67,-5.68 -12.67,-12.67c0,-6.99 5.68,-12.67 12.67,-12.67z" fill="#311363" id="svg_19"/>
    <path d="m437.99,226.43c15.37,0 27.88,-12.5 27.88,-27.88s-12.51,-27.88 -27.88,-27.88s-27.88,12.51 -27.88,27.88s12.51,27.88 27.88,27.88zm0,-40.55c6.99,0 12.67,5.69 12.67,12.67c0,6.99 -5.68,12.68 -12.67,12.68c-6.99,0 -12.67,-5.69 -12.67,-12.68s5.68,-12.67 12.67,-12.67z" fill="#311363" id="svg_20"/>
    <rect fill="#311363" height="15.21" id="svg_21" width="18.25" x="397.77" y="247.72"/>
    <rect fill="#311363" height="15.21" id="svg_22" width="18.25" x="428.86" y="247.72"/>
    <rect fill="#311363" height="15.21" id="svg_23" width="18.25" x="459.96" y="247.72"/>
    <rect fill="#311363" height="15.21" id="svg_24" width="18.25" x="397.77" y="275.09"/>
    <rect fill="#311363" height="15.21" id="svg_25" width="18.25" x="428.86" y="275.09"/>
    <rect fill="#311363" height="15.21" id="svg_26" width="18.25" x="459.96" y="275.09"/>
    <rect fill="#311363" height="15.21" id="svg_27" width="18.25" x="397.77" y="302.47"/>
    <rect fill="#311363" height="15.21" id="svg_28" width="18.25" x="428.86" y="302.47"/>
    <rect fill="#311363" height="15.21" id="svg_29" width="18.25" x="459.96" y="302.47"/>
    <rect fill="#311363" height="15.21" id="svg_30" width="80.43" x="397.77" y="332.88"/>
    <rect fill="#311363" height="15.21" id="svg_31" width="80.43" x="397.77" y="363.3"/>
   </g>
  </symbol>
 </defs>
 <g class="layer">
  <title>Layer 1</title>
  <use id="svg_3" transform="matrix(0.98139 0 0 0.98139 -0.327147 0.6629)" x="1.75" xlink:href="#svg_2" y="0.74"/>
 </g>
</svg>