<?xml version="1.0" encoding="utf-8"?>
<svg xmlns="http://www.w3.org/2000/svg" xmlns:xlink="http://www.w3.org/1999/xlink" xml:space="preserve" id="Layer_1" x="0" y="0" version="1.1" viewBox="0 0 960 960">
  <defs>
    <path id="reuse-0" d="M437.8 748c-142.7 0-258.9-116.1-258.9-258.9S295 230.2 437.8 230.2c142.7 0 258.9 116.1 258.9 258.9S580.6 748 437.8 748zm0-475c-119.1 0-216.1 96.9-216.1 216.1s96.9 216.1 216.1 216.1c119.1 0 216.1-96.9 216.1-216.1S557 273 437.8 273z" class="st1"/>
  </defs>
  <style>
    .st0{fill:#fff}.st1{fill:#f15a24}.st3{fill:#c1272d}
  </style>
  <circle cx="437.8" cy="489.1" r="237.5" class="st0"/>
  <use xlink:href="#reuse-0" class="st1"/>
  <circle cx="437.8" cy="489.1" r="237.5" class="st0"/>
  <use xlink:href="#reuse-0" class="st1"/>
  <circle cx="437.8" cy="489.1" r="144.8" class="st0"/>
  <path fill="#f7931e" d="M437.8 657.7c-93 0-168.6-75.6-168.6-168.6s75.6-168.6 168.6-168.6 168.6 75.6 168.6 168.6-75.6 168.6-168.6 168.6zm0-289.5c-66.7 0-120.9 54.2-120.9 120.9S371.2 610 437.8 610c66.7 0 120.9-54.2 120.9-120.9s-54.2-120.9-120.9-120.9z"/>
  <circle cx="437.8" cy="489.1" r="72.4" class="st3"/>
  <path d="m681.6 340.8 15.3-77.3 103-51.5-10.6 71.4zm183.5 3.9-71.4-33.3-102.3 52.9 63.9 33.5z" class="st3"/>
  <path fill="#333" d="m445.3 502.8-14.9-27.4 349.4-192.2c7.6-4.1 17.1-1.3 21.2 6.2 4.1 7.6 1.3 17.1-6.2 21.2L445.3 502.8z"/>
</svg>